<ttFont>
          <CharString index="0">
            -105 callsubr
            hvcurveto
            return
          </CharString>
          <CharString index="1">
            -15 -100 callsubr
            return
          </CharString>
          <CharString index="2">
            -96 callgsubr
            15 return
          </CharString>
          <CharString index="3">
            rmoveto
            -15 -4 0 -19 -18 hvcurveto
            -112 -119 rlineto
            -3 -3 -2 -5 -5 vvcurveto
            -10 6 -6 10 vhcurveto
            71 hlineto
            13 13 0 7 14 hvcurveto
            92 42 92 -42 rlineto
            -7 14 13 0 13 hhcurveto
            71 -87 callsubr
            -112 119 rlineto
            return
          </CharString>
          <CharString index="4">
            -70 callsubr
            140 hlineto
            13 17 0 10 11 hvcurveto
            158 130 rlineto
            3 3 2 4 5 vvcurveto
            12 -7 8 -12 vhcurveto
            -197 hlineto
            -15 -7 -2 -17 -15 hvcurveto
            endchar
          </CharString>
          <CharString index="5">
            -106 callsubr
            hvcurveto
            -646 vlineto
            -15 12 -99 callsubr
            return
          </CharString>
          <CharString index="6">
            298 rmoveto
            -107 callgsubr
            -25 hlineto
            -106 callsubr
            hvcurveto
            -26 vlineto
            -15 12 -99 callsubr
            25 hlineto
            -107 callsubr
            return
          </CharString>
          <CharString index="7">
            -12 -12 -15 return
          </CharString>
          <CharString index="8">
            -12 15 vhcurveto
            return
          </CharString>
          <CharString index="9">
            -71 callgsubr
            -23 -86 -53 -97 vvcurveto
            263 -11 rmoveto
            -25 -13 13 15 14 9 15 35 8 hvcurveto
            59 13 rlineto
            -54 -26 -24 -39 vhcurveto
            return
          </CharString>
          <CharString index="10">
            hlineto
            -106 callsubr
            hvcurveto
            -466 vlineto
            -15 12 -99 callsubr
            return
          </CharString>
          <CharString index="11">
            305 195 rmoveto
            63 278 vlineto
            -107 callsubr
            130 vlineto
            -107 callgsubr
            -278 63 300 -58 callgsubr
            vlineto
            -107 callgsubr
            -513 hlineto
            -102 callsubr
            521 -58 callgsubr
            vlineto
            -107 callgsubr
            return
          </CharString>
          <CharString index="12">
            190 96 89 164 hvcurveto
            301 vlineto
            -107 callgsubr
            -149 hlineto
            -15 -12 -11 -15 hvcurveto
            -305 vlineto
            -50 -35 -25 -49 vhcurveto
            -140 hlineto
            78 39 24 79 79 vvcurveto
            180 vlineto
            15 -12 14 17 callsubr
            -17 hvcurveto
            -178 vlineto
            -43 -36 -31 -35 -12 vhcurveto
            endchar
          </CharString>
          <CharString index="13">
            rmoveto
            2 3 3 7 5 vvcurveto
            10 -6 6 -10 vhcurveto
            -140 hlineto
            -13 -20 0 -20 -9 hvcurveto
            -75 -146 rlineto
            -39 callsubr
            -12 7 -7 12 vhcurveto
            117 hlineto
            15 10 0 19 12 hvcurveto
            endchar
          </CharString>
          <CharString index="14">
            -86 callgsubr
            287 vlineto
            137 -87 79 -181 -46 callsubr
            77 callgsubr
            return
          </CharString>
          <CharString index="15">
            hintmask 11000000
            379 710 rmoveto
            196 138 -100 -184 65 callgsubr
            -138 -91 -196 -196 -138 91 189 vhcurveto
            156 vlineto
            185 138 99 196 vhcurveto
            -525 vmoveto
            44 30 19 callsubr
            -31 25 -43 -43 -31 -25 -56 vhcurveto
            -168 vlineto
            -56 30 -25 44 vhcurveto
            return
          </CharString>
          <CharString index="16">
            -20 callgsubr
            -156 vlineto
            -189 138 -91 196 196 138 91 189 vhcurveto
            156 vlineto
            184 -138 100 -196 vhcurveto
            -525 vmoveto
            -44 -30 19 callsubr
            31 25 43 43 31 -25 -56 vhcurveto
            -168 vlineto
            -56 -30 -25 -44 vhcurveto
            return
          </CharString>
          <CharString index="17">
            -81 callsubr
            190 hlineto
            -107 callsubr
            return
          </CharString>
          <CharString index="18">
            hstemhm
            hintmask 11100000
            -104 callgsubr
            return
          </CharString>
          <CharString index="19">
            21 callgsubr
            hintmask 10101100
            -70 callgsubr
            hintmask 01101100
            -93 callgsubr
            hintmask 10101100
            -80 callgsubr
            return
          </CharString>
          <CharString index="20">
            hlineto
            10 6 6 10 5 -2 5 -3 3 hvcurveto
            return
          </CharString>
          <CharString index="21">
            35 226 rmoveto
            13 callgsubr
            174 116 79 157 vhcurveto
            68 vlineto
            157 -127 79 -163 -163 -127 -79 -157 vhcurveto
            335 -76 91 callgsubr
            84 vlineto
            51 12 17 33 33 12 -17 -51 vhcurveto
            return
          </CharString>
          <CharString index="22">
            392 520 rmoveto
            -20 -11 -13 -11 -3 hvcurveto
            -65 -208 -61 208 rlineto
            11 -3 -11 13 -20 hhcurveto
            -154 hlineto
            -13 -11 -11 -13 -2 0 -2 1 -4 hvcurveto
            146 -463 rlineto
            -12 4 9 -13 20 hhcurveto
            134 hlineto
            20 9 13 12 4 hvcurveto
            72 202 71 -202 rlineto
            -12 4 9 -13 20 hhcurveto
            134 hlineto
            20 9 13 12 4 hvcurveto
            146 463 rlineto
            1 4 59 callgsubr
            -154 hlineto
            -20 -11 -13 -11 -3 hvcurveto
            -61 -208 -65 208 rlineto
            11 -3 -11 13 -20 hhcurveto
            return
          </CharString>
          <CharString index="23">
            rmoveto
            179 34 callgsubr
            -124 hlineto
            -8 -6 -4 -5 -4 hvcurveto
            -142 -185 rlineto
            -2 -2 -3 -5 -8 vvcurveto
            -82 vlineto
            -7 6 -6 7 vhcurveto
            160 -33 hlineto
            -7 6 -6 7 vhcurveto
            103 hlineto
            8 6 6 7 hvcurveto
            33 44 vlineto
            7 6 6 7 hvcurveto
            85 vlineto
            7 -5 6 -9 vhcurveto
            -222 -5 rmoveto
            52 72 rlineto
            -72 vlineto
            return
          </CharString>
          <CharString index="24">
            521 27 rmoveto
            -8 3 11 -19 27 hhcurveto
            143 hlineto
            27 17 20 18 2 hvcurveto
            92 637 rlineto
            1 0 1 1 66 callgsubr
            -186 hlineto
            -23 -11 -7 -20 -2 hvcurveto
            -34 -281 -41 124 rlineto
            9 -3 -7 20 -24 hhcurveto
            -102 hlineto
            -24 -7 -20 -9 -3 hvcurveto
            -41 -125 -34 282 rlineto
            20 -2 -11 7 -23 hhcurveto
            -186 -49 callsubr
            hvcurveto
            -1 0 -1 -1 vvcurveto
            92 -637 rlineto
            -18 2 17 -20 27 hhcurveto
            143 hlineto
            27 11 19 8 3 hvcurveto
            82 205 rlineto
            return
          </CharString>
          <CharString index="25">
            hlineto
            -106 callsubr
            hvcurveto
            -121 vlineto
            -15 12 -99 callsubr
            return
          </CharString>
          <CharString index="26">
            15 -12 12 -15 vhcurveto
            -175 -97 callsubr
            return
          </CharString>
          <CharString index="27">
            rmoveto
            -30 -11 -20 -30 -30 -10 20 30 10 -7 9 -12 vhcurveto
            -94 23 callsubr
            -90 62 -56 110 return
          </CharString>
          <CharString index="28">
            673 rmoveto
            -107 callgsubr
            -529 hlineto
            -106 callsubr
            hvcurveto
            -149 vlineto
            -15 12 -99 callsubr
            297 -231 hlineto
            -61 -23 -20 -36 -33 -12 13 27 -13 vhcurveto
            22 -10 -9 10 -22 hhcurveto
            -204 -49 callsubr
            -157 152 -88 165 182 144 83 190 hvcurveto
            return
          </CharString>
          <CharString index="29">
            vlineto
            -107 callgsubr
            -196 hlineto
            -106 callsubr
            hvcurveto
            return
          </CharString>
          <CharString index="30">
            rmoveto
            -39 callsubr
            -10 6 -6 10 vhcurveto
            91 hlineto
            13 9 -4 callgsubr
            128 rlineto
            3 3 3 5 5 vvcurveto
            12 -8 7 -12 vhcurveto
            -148 hlineto
            -15 -13 1 -20 -9 hvcurveto
            202 -117 rmoveto
            -39 callsubr
            -10 6 -6 10 vhcurveto
            81 hlineto
            13 19 -4 callgsubr
            128 rlineto
            3 3 3 5 5 vvcurveto
            12 -8 7 -12 vhcurveto
            -148 hlineto
            -15 -13 1 -20 -9 hvcurveto
            endchar
          </CharString>
          <CharString index="31">
            350 345 rmoveto
            126 -10 callgsubr
            -126 163 hlineto
            -59 callsubr
            -163 -79 -11 callsubr
            79 -130 hlineto
            -164 105 -51 145 vhcurveto
            45 callsubr
            131 vlineto
            -107 callgsubr
            -91 hlineto
            -30 -13 19 31 hvcurveto
            return
          </CharString>
          <CharString index="32">
            hintmask 11000000
            305 266 rmoveto
            -61 30 -20 44 34 28 14 40 13 vhcurveto
            23 7 8 6 86 callsubr
            -10 -12 -182 -167 -74 -170 -192 -143 79 196 hvcurveto
            170 vlineto
            191 148 84 187 170 167 -74 -182 -35 callgsubr
            vhcurveto
            -204 hlineto
            -22 -7 7 22 -8 hvcurveto
            43 -15 -26 11 -34 hhcurveto
            -44 -30 -20 -61 hvcurveto
            return
          </CharString>
          <CharString index="33">
            305 434 rmoveto
            61 30 20 44 34 26 -11 -43 15 vhcurveto
            -22 8 7 -7 86 callsubr
            10 12 182 -167 74 -170 -187 -148 -84 -191 hvcurveto
            -170 vlineto
            -196 143 -79 192 170 167 74 182 -7 callsubr
            return
          </CharString>
          <CharString index="34">
            1 -2 -6 6 -9 hhcurveto
            -107 hlineto
            -5 -4 -5 -5 -62 54 -51 106 106 54 60 67 66 -60 41 -62 -33 -16 -5 -12 -19 hvcurveto
            4 35 rlineto
            147 hlineto
            8 6 6 8 hvcurveto
            80 34 callgsubr
            -223 hlineto
            -10 -8 -6 -11 -2 hvcurveto
            -20 -180 rlineto
            -5 0 4 -1 vvcurveto
            -6 4 -4 6 vhcurveto
            104 hlineto
            7 3 11 18 hhcurveto
            18 9 -16 -14 hvcurveto
            return
          </CharString>
          <CharString index="35">
            -7 6 8 -4 15 hhcurveto
            221 hlineto
            -45 callsubr
            121 -133 102 -211 -197 -140 -92 -182 hvcurveto
            -168 vlineto
            -191 135 -87 202 202 142 95 180 vhcurveto
            130 vlineto
            -107 callgsubr
            return
          </CharString>
          <CharString index="36">
            57 -69 callgsubr
            -161 vlineto
            -15 12 -99 callsubr
            166 -458 hlineto
            -15 12 -99 callsubr
            200 hlineto
            -107 callsubr
            458 166 vlineto
            -107 callsubr
            161 vlineto
            -107 callgsubr
            return
          </CharString>
          <CharString index="37">
            rmoveto
            -3 -3 -2 -5 -5 vvcurveto
            -10 6 -6 10 vhcurveto
            return
          </CharString>
          <CharString index="38">
            10 -7 9 -12 hvcurveto
            -84 hlineto
            -7 -5 -4 -5 -3 hvcurveto
            -9 -6 return
          </CharString>
          <CharString index="39">
            -46 92 callgsubr
            64 140 return
          </CharString>
          <CharString index="40">
            rmoveto
            69 69 rlineto
            13 13 5 9 23 vvcurveto
            141 vlineto
            -48 callgsubr
            -1 -7 0 -5 -6 vhcurveto
            -217 -211 rlineto
            -8 -7 -6 -9 -12 vvcurveto
            -66 vlineto
            -12 6 -9 8 -7 vhcurveto
            217 -211 rlineto
            -5 6 7 0 1 hhcurveto
            -45 callsubr
            hvcurveto
            141 vlineto
            23 -5 9 -13 13 vhcurveto
            return
          </CharString>
          <CharString index="41">
            4 -4 -3 3 -8 hhcurveto
            -100 hlineto
            -6 -4 -4 -6 -36 41 -70 120 95 69 48 69 63 -40 30 -50 13 hvcurveto
            return
          </CharString>
          <CharString index="42">
            hlineto
            -106 callsubr
            hvcurveto
            -131 vlineto
            -15 12 -99 callsubr
            return
          </CharString>
          <CharString index="43">
            36 18 60 callsubr
            -269 vlineto
            -15 12 -99 callsubr
            191 hlineto
            -107 callsubr
            return
          </CharString>
          <CharString index="44">
            -44 34 callsubr
            610 483 rmoveto
            2 3 2 4 7 vvcurveto
            12 81 callgsubr
            -175 hlineto
            -20 -8 -13 -6 -4 hvcurveto
            -58 -89 -58 89 rlineto
            6 -4 -8 13 -20 hhcurveto
            -183 hlineto
            -13 -11 -11 -13 -5 2 -5 2 -3 hvcurveto
            144 -215 -162 -231 rlineto
            -3 -4 -1 -6 -3 vvcurveto
            -13 11 -11 13 vhcurveto
            187 hlineto
            18 8 11 6 4 hvcurveto
            69 97 66 -97 rlineto
            -7 5 7 -10 18 hhcurveto
            192 hlineto
            13 11 11 13 4 -1 5 -3 4 hvcurveto
            -165 232 rlineto
            endchar
          </CharString>
          <CharString index="45">
            vlineto
            -86 callgsubr
            160 vlineto
            102 -170 rlineto
            -3 2 9 -14 20 hhcurveto
            210 hlineto
            13 11 11 13 6 -2 4 -2 3 hvcurveto
            return
          </CharString>
          <CharString index="46">
            hintmask 11000000
            439 232 rmoveto
            -82 -205 rlineto
            -8 -3 -11 -19 -27 hhcurveto
            -143 hlineto
            -27 -17 20 18 -2 hvcurveto
            -92 637 rlineto
            1 0 1 1 vvcurveto
            -45 callsubr
            vhcurveto
            186 hlineto
            23 11 -7 -20 2 hvcurveto
            34 -282 41 125 rlineto
            9 3 7 20 24 hhcurveto
            102 hlineto
            24 7 -20 -9 3 hvcurveto
            41 -124 34 281 rlineto
            20 2 11 7 23 hhcurveto
            186 hlineto
            12 10 -10 -12 hvcurveto
            -1 0 -1 -1 vvcurveto
            -92 -637 rlineto
            -18 -2 -17 -20 -27 hhcurveto
            -143 hlineto
            -27 -11 19 8 -3 hvcurveto
            return
          </CharString>
          <CharString index="47">
            rmoveto
            5 3 5 7 10 vvcurveto
            63 vlineto
            8 -6 6 -7 vhcurveto
            -256 hlineto
            -8 -6 -6 -8 hvcurveto
            -80 vlineto
            return
          </CharString>
          <CharString index="48">
            -107 callgsubr
            -175 hlineto
            -106 callsubr
            hvcurveto
            return
          </CharString>
          <CharString index="49">
            hlineto
            -107 callsubr
            646 vlineto
            -107 callgsubr
            return
          </CharString>
          <CharString index="50">
            12 callsubr
            hintmask 10100110
            -68 callgsubr
            hintmask 01100110
            -93 callsubr
            hintmask 10010110
            -98 callsubr
            return
          </CharString>
          <CharString index="51">
            -25 -15 -18 -30 -33 vvcurveto
            -57 42 -59 117 117 44 58 57 33 -18 32 -27 14 vhcurveto
            return
          </CharString>
          <CharString index="52">
            -8 6 -6 8 vhcurveto
            44 hlineto
            19 -2 12 27 hhcurveto
            20 12 -13 -12 -12 -8 -12 -21 hvcurveto
            return
          </CharString>
          <CharString index="53">
            rmoveto
            -167 96 -59 116 58 44 16 27 31 vhcurveto
            -71 vlineto
            -37 -14 -17 -29 -24 -9 8 17 -9 vhcurveto
            return
          </CharString>
          <CharString index="54">
            rmoveto
            -106 callsubr
            hvcurveto
            -121 vlineto
            -15 12 -99 callsubr
            74 hlineto
            -111 -365 rlineto
            -1 -3 -1 -4 -2 vvcurveto
            -13 13 -9 13 vhcurveto
            153 hlineto
            27 8 19 6 2 hvcurveto
            107 371 rlineto
            32 hlineto
            49 25 -25 -50 hvcurveto
            -156 -53 vlineto
            -106 callsubr
            hvcurveto
            -111 vlineto
            -15 12 -99 callsubr
            76 hlineto
            4 hlineto
            36 callgsubr
          </CharString>
          <CharString index="55">
            21 13 12 30 vhcurveto
            81 -10 callgsubr
            -93 hlineto
            -145 -115 -39 -164 hvcurveto
            -17 -69 -11 callsubr
            69 return
          </CharString>
          <CharString index="56">
            111 62 56 90 10 -7 9 -12 hvcurveto
            -94 hlineto
            return
          </CharString>
          <CharString index="57">
            109 -16 rmoveto
            -106 callsubr
            hvcurveto
            -121 vlineto
            -15 12 -99 callsubr
            75 hlineto
            131 54 56 159 68 hvcurveto
            199 465 rlineto
            2 4 -1 31 callgsubr
            -10 -12 -12 -4 hvcurveto
            -84 -228 -83 228 rlineto
            11 -4 -8 13 -20 hhcurveto
            -169 hlineto
            -13 -10 -11 -13 -2 hvcurveto
            67 callsubr
            vhcurveto
            194 -456 rlineto
            -42 -17 -7 -7 -32 hhcurveto
            return
          </CharString>
          <CharString index="58">
            hlineto
            -35 callgsubr
            return
          </CharString>
          <CharString index="59">
            -8 6 -6 8 vhcurveto
            111 hlineto
            -49 -28 rlineto
            -5 -3 -5 -7 -10 vvcurveto
            -48 vlineto
            return
          </CharString>
          <CharString index="60">
            rmoveto
            2 0 -2 2 66 callgsubr
            -108 hlineto
            -26 -15 -19 -13 -5 hvcurveto
            -95 -241 rlineto
            -1 -3 0 -2 -2 vvcurveto
            -54 callgsubr
            vhcurveto
            165 hlineto
            27 18 21 18 3 hvcurveto
            return
          </CharString>
          <CharString index="61">
            -187 -76 -99 -51 -13 9 -9 13 return
          </CharString>
          <CharString index="62">
            12 10 10 12 return
          </CharString>
          <CharString index="63">
            -26 -1 16 -25 hhcurveto
            -61 hlineto
            -7 -6 -6 -7 hvcurveto
            -83 242 -45 157 vvcurveto
            49 -34 42 -57 -7 -21 -1 -5 -9 vhcurveto
            return
          </CharString>
          <CharString index="64">
            5 -2 5 -3 3 vhcurveto
            endchar
          </CharString>
          <CharString index="65">
            639 303 rmoveto
            158 -93 69 -101 -71 -62 -31 -39 -33 vhcurveto
            33 vlineto
            return
          </CharString>
          <CharString index="66">
            rmoveto
            66 45 45 43 57 vvcurveto
            71 -58 41 -91 -86 -66 -49 -76 -6 5 -5 6 vhcurveto
            94 hlineto
            9 7 2 10 4 hvcurveto
            return
          </CharString>
          <CharString index="67">
            rmoveto
            -106 callsubr
            hvcurveto
            -121 vlineto
            -15 12 -99 callsubr
            2 hlineto
            49 35 -25 -50 hvcurveto
            -85 vlineto
            -55 -36 -16 -48 -49 -35 17 55 vhcurveto
            297 vlineto
            -107 callgsubr
            -158 hlineto
            -106 callsubr
            hvcurveto
            -294 vlineto
            -159 100 -101 197 188 107 100 156 vhcurveto
            82 vlineto
            154 -105 99 68 callsubr
          </CharString>
          <CharString index="68">
            -2 -4 -3 -6 -5 vvcurveto
            return
          </CharString>
          <CharString index="69">
            -12 -7 -9 -10 return
          </CharString>
          <CharString index="70">
            rmoveto
            70 41 39 55 54 -41 39 -70 -69 -41 -39 -54 -55 40 -39 70 hvcurveto
            63 vmoveto
            -15 -13 10 21 hvcurveto
            return
          </CharString>
          <CharString index="71">
            172 35 callgsubr
            return
          </CharString>
          <CharString index="72">
            rmoveto
            -199 161 -161 199 199 161 161 199 199 -161 161 -199 -199 -161 -161 -199 vhcurveto
            80 hmoveto
            159 121 128 159 159 121 -128 -159 -159 -121 -128 -159 -159 -121 128 159 vhcurveto
            return
          </CharString>
          <CharString index="73">
            -12 6 8 -8 15 hhcurveto
            22 callgsubr
            return
          </CharString>
          <CharString index="74">
            rmoveto
            -1 -1 -1 -2 -3 vvcurveto
            -6 5 -5 6 vhcurveto
            110 hlineto
            11 6 6 4 3 hvcurveto
            70 93 rlineto
            31 44 37 38 49 vvcurveto
            75 -61 51 -104 -104 -56 -63 -68 -80 77 -33 42 -5 vhcurveto
            11 119 rmoveto
            19 15 10 17 17 14 -10 -19 -19 -14 -11 -17 -18 -14 11 19 vhcurveto
            endchar
          </CharString>
          <CharString index="75">
            280 295 rmoveto
            40 9 24 31 20 8 -11 -19 9 vhcurveto
            return
          </CharString>
          <CharString index="76">
            36 13 22 37 34 14 -18 -32 2 vhcurveto
            -54 vlineto
            -32 -2 -14 -18 -34 hhcurveto
            return
          </CharString>
          <CharString index="77">
            rmoveto
            -55 -30 -20 -34 vhcurveto
            -32 -65 callsubr
            33 hlineto
            190 105 109 154 hvcurveto
            291 vlineto
            -107 callgsubr
            -267 111 hlineto
            -107 callgsubr
            -153 hlineto
            -106 callsubr
            hvcurveto
            -269 vlineto
            -15 12 -99 callsubr
            return
          </CharString>
          <CharString index="78">
            hstemhm
            2 callsubr
            return
          </CharString>
          <CharString index="79">
            17 -20 -2 2 -15 hhcurveto
            endchar
          </CharString>
          <CharString index="80">
            rmoveto
            15 6 15 19 18 8 -14 -16 vhcurveto
            -93 vlineto
            return
          </CharString>
          <CharString index="81">
            169 hlineto
            -107 callsubr
            return
          </CharString>
          <CharString index="82">
            92 700 rmoveto
            -102 callsubr
            289 hlineto
            191 143 87 189 hvcurveto
            149 vlineto
            37 callgsubr
            96 -187 vhcurveto
            -65 -195 -6 callgsubr
            hlineto
            return
          </CharString>
          <CharString index="83">
            93 39 -42 99 hhcurveto
            68 42 36 44 hvcurveto
            108 vlineto
            25 -3 12 -19 vhcurveto
            -9 -1 -6 -4 -5 -4 rrcurveto
            -9 -10 -26 -17 -31 hhcurveto
            return
          </CharString>
          <CharString index="84">
            rmoveto
            154 -96 109 -200 vhcurveto
            -148 -65 callsubr
            147 hlineto
            49 35 -25 -50 hvcurveto
            -51 vlineto
            -50 -35 -25 -49 vhcurveto
            -147 -65 callsubr
            148 hlineto
            return
          </CharString>
          <CharString index="85">
            vvcurveto
            -85 51 -67 111 44 callsubr
            58 vlineto
            -107 callgsubr
            return
          </CharString>
          <CharString index="86">
            127 -115 115 63 115 -115 130 return
          </CharString>
          <CharString index="87">
            -15 12 -99 callsubr
            174 hlineto
            -107 callsubr
            return
          </CharString>
          <CharString index="88">
            -19 -8 -5 -11 -24 hhcurveto
            -31 -9 21 43 hvcurveto
            return
          </CharString>
          <CharString index="89">
            37 callgsubr
            -29 callgsubr
            return
          </CharString>
          <CharString index="90">
            15 callsubr
            -59 -51 -14 -23 -43 vhcurveto
            24 -33 -50 13 -74 hhcurveto
            -46 callsubr
            hvcurveto
            170 hlineto
            return
          </CharString>
          <CharString index="91">
            -42 callgsubr
            hstem
            return
          </CharString>
          <CharString index="92">
            rmoveto
            -107 callsubr
            121 vlineto
            -107 callgsubr
            -458 -82 callsubr
            174 -369 hlineto
            -15 12 -99 callsubr
            177 hlineto
            -107 callsubr
            369 vlineto
            endchar
          </CharString>
          <CharString index="93">
            rmoveto
            -41 -27 -29 -37 -5 vhcurveto
            -4 -5 -5 -6 hvcurveto
            -78 vlineto
            -6 5 -5 6 93 69 58 106 vhcurveto
            139 vlineto
            106 -69 58 -93 -6 -5 -5 -6 vhcurveto
            hintmask 11010000
            -78 vlineto
            -6 5 -5 4 vhcurveto
            37 -5 27 -29 -41 vvcurveto
            endchar
          </CharString>
          <CharString index="94">
            rmoveto
            -109 -38 -56 -53 -28 11 -24 20 -15 hvcurveto
            return
          </CharString>
          <CharString index="95">
            -68 -42 -36 -44 hvcurveto
            -108 vlineto
            -25 3 -12 19 vhcurveto
            9 1 6 4 5 4 rrcurveto
            9 10 26 17 31 hhcurveto
            return
          </CharString>
          <CharString index="96">
            vlineto
            -106 callsubr
            hvcurveto
            -121 vlineto
            -15 12 -99 callsubr
            return
          </CharString>
          <CharString index="97">
            rmoveto
            -106 callsubr
            hvcurveto
            -116 vlineto
            -15 12 -99 callsubr
            return
          </CharString>
          <CharString index="98">
            21 -29 callgsubr
            69 167 return
          </CharString>
          <CharString index="99">
            -15 12 -12 15 77 callgsubr
            -107 callsubr
            656 vlineto
            -107 callgsubr
            -185 hlineto
            -106 callsubr
            hvcurveto
            -200 vlineto
            29 -32 -45 18 -56 hhcurveto
            -116 -96 -73 -157 hvcurveto
            345 -73 rmoveto
            return
          </CharString>
          <CharString index="100">
            32 callgsubr
            -8 -6 -23 -7 hvcurveto
            -40 -13 -28 -14 -34 hhcurveto
            -44 -30 20 61 hvcurveto
            return
          </CharString>
          <CharString index="101">
            vlineto
            12 -9 9 -12 -2 -4 -1 -2 -5 vhcurveto
            return
          </CharString>
          <CharString index="102">
            -15 callgsubr
            hstemhm
            return
          </CharString>
          <CharString index="103">
            185 86 104 51 return
          </CharString>
          <CharString index="104">
            rmoveto
            -106 callsubr
            vhcurveto
            -169 hlineto
            -15 -12 12 15 hvcurveto
            302 vlineto
            -105 callsubr
            vhcurveto
            169 hlineto
            15 12 -12 -15 hvcurveto
            -196 242 rmoveto
            -106 callsubr
            hvcurveto
            -121 vlineto
            return
          </CharString>
          <CharString index="105">
            -199 239 196 hstem
            67 435 rmoveto
            -106 callsubr
            hvcurveto
            -142 vlineto
            -15 12 -99 callsubr
            353 hlineto
            -107 callsubr
            142 vlineto
            -107 callgsubr
            endchar
          </CharString>
          <CharString index="106">
            35 -10 195 -195 235 290 195 return
          </CharString>
          <CharString index="107">
            75 callsubr
            -15 hvcurveto
            return
          </CharString>
          <CharString index="108">
            35 callsubr
            endchar
          </CharString>
          <CharString index="109">
            35 245 return
          </CharString>
          <CharString index="110">
            -36 -13 -22 -37 -37 -13 22 36 vhcurveto
            66 vlineto
            36 13 22 37 34 14 -18 -32 2 vhcurveto
            return
          </CharString>
          <CharString index="111">
            20 13 10 15 17 11 -10 -20 -21 -11 -10 -17 vhcurveto
            endchar
          </CharString>
          <CharString index="112">
            rmoveto
            -106 callsubr
            hvcurveto
            -109 vlineto
            -15 12 -99 callsubr
            return
          </CharString>
          <CharString index="113">
            21 25 -15 -39 -25 -10 -32 -36 hvcurveto
            -70 hlineto
            return
          </CharString>
          <CharString index="114">
            rmoveto
            67 vlineto
            194 -117 68 -190 vhcurveto
            -52 -82 callsubr
            51 hlineto
            49 25 -34 -50 hvcurveto
            -44 vlineto
            return
          </CharString>
          <CharString index="115">
            vlineto
            -29 32 45 -18 56 hhcurveto
            116 96 73 157 hvcurveto
            -345 73 rmoveto
            return
          </CharString>
          <CharString index="116">
            vlineto
            -107 callgsubr
            -179 hlineto
            -106 callsubr
            hvcurveto
            -466 vlineto
            -15 return
          </CharString>
          <CharString index="117">
            hlineto
            72 callsubr
            123 -496 71 callgsubr
            return
          </CharString>
          <CharString index="118">
            -10 109 -78 -21 252 108 -20 109 153 108 -10 -20 hstemhm
            40 137 51 136 92 137 51 136 return
          </CharString>
          <CharString index="119">
            52 callgsubr
            240 return
          </CharString>
          <CharString index="120">
            -195 hlineto
            -106 callsubr
            return
          </CharString>
          <CharString index="121">
            -44 callsubr
            7 return
          </CharString>
          <CharString index="122">
            -11 -11 -6 -7 -12 hhcurveto
            -29 -10 21 40 hvcurveto
            5 298 vlineto
            -107 callsubr
            30 vlineto
            147 -89 125 -196 return
          </CharString>
          <CharString index="123">
            -93 rmoveto
            15 -12 11 0 callsubr
            -301 vlineto
            -164 96 -89 190 vhcurveto
            220 hlineto
            return
          </CharString>
          <CharString index="124">
            -15 vhcurveto
            -139 hlineto
            -15 -12 -12 return
          </CharString>
          <CharString index="125">
            -42 callgsubr
            70 172 hstemhm
            return
          </CharString>
          <CharString index="126">
            25 56 hvcurveto
            168 vlineto
            56 return
          </CharString>
          <CharString index="127">
            65 235 160 235 return
          </CharString>
          <CharString index="128">
            -21 91 195 414 -20 return
          </CharString>
          <CharString index="129">
            55 250 148 250 return
          </CharString>
          <CharString index="130">
            hlineto
            -38 callsubr
            return
          </CharString>
          <CharString index="131">
            vlineto
            -107 callgsubr
            -174 hlineto
            -106 callsubr
            hvcurveto
            return
          </CharString>
          <CharString index="132">
            14 callgsubr
            87 callsubr
            return
          </CharString>
          <CharString index="133">
            30 callgsubr
            -10 hlineto
            return
          </CharString>
          <CharString index="134">
            91 callgsubr
            24 vlineto
            51 12 17 33 30 13 -15 -42 2 vhcurveto
            return
          </CharString>
          <CharString index="135">
            32 34 -37 52 hhcurveto
            endchar
          </CharString>
          <CharString index="136">
            -68 callsubr
            39 167 -29 callsubr
            return
          </CharString>
          <CharString index="137">
            -26 callgsubr
            39 167 hstemhm
            return
          </CharString>
          <CharString index="138">
            634 299 rmoveto
            167 -96 64 -116 -69 return
          </CharString>
          <CharString index="139">
            -18 callgsubr
            40 return
          </CharString>
          <CharString index="140">
            hstem
            65 250 162 250 vstem
            return
          </CharString>
          <CharString index="141">
            21 -29 callgsubr
            hstem
            return
          </CharString>
          <CharString index="142">
            -95 51 -77 121 44 callsubr
            68 vlineto
            -107 callgsubr
            return
          </CharString>
          <CharString index="143">
            hlineto
            -106 callsubr
            hvcurveto
            endchar
          </CharString>
          <CharString index="144">
            0 2 2 vvcurveto
            return
          </CharString>
          <CharString index="145">
            276 92 callgsubr
            32 -36 callsubr
            return
          </CharString>
          <CharString index="146">
            14 hlineto
            -107 callsubr
            return
          </CharString>
          <CharString index="147">
            72 -10 201 509 -20 return
          </CharString>
          <CharString index="148">
            172 99 172 return
          </CharString>
          <CharString index="149">
            vstem
            77 571 rmoveto
            -106 callsubr
            hvcurveto
            -517 vlineto
            -15 12 -99 callsubr
            return
          </CharString>
          <CharString index="150">
            48 -10 rmoveto
            190 133 87 194 hvcurveto
            209 122 -453 vlineto
            return
          </CharString>
          <CharString index="151">
            vhcurveto
            39 callsubr
            return
          </CharString>
          <CharString index="152">
            113 hlineto
            -107 callsubr
            return
          </CharString>
          <CharString index="153">
            hlineto
            -106 callsubr
            hvcurveto
            -453 return
          </CharString>
          <CharString index="154">
            -62 0 172 176 172 return
          </CharString>
          <CharString index="155">
            61 -5 callsubr
            return
          </CharString>
          <CharString index="156">
            -195 hlineto
            -15 return
          </CharString>
          <CharString index="157">
            9 -45 callgsubr
            50 172 77 callsubr
            return
          </CharString>
          <CharString index="158">
            -21 351 179 return
          </CharString>
          <CharString index="159">
            245 100 244 return
          </CharString>
          <CharString index="160">
            571 rmoveto
            -106 callsubr
            hvcurveto
            -121 vlineto
            -15 12 -99 callsubr
            return
          </CharString>
          <CharString index="161">
            0 177 81 175 87 -20 hstem
            50 235 116 215 return
          </CharString>
          <CharString index="162">
            hstemhm
            35 225 return
          </CharString>
          <CharString index="163">
            74 0 195 79 155 76 195 hstem
            65 250 vstem
            return
          </CharString>
          <CharString index="164">
            30 callsubr
            35 245 return
          </CharString>
          <CharString index="165">
            14 -12 7 -12 vhcurveto
            -28 hlineto
            -15 -15 -1 -18 -3 hvcurveto
            endchar
          </CharString>
          <CharString index="166">
            -2 27 callgsubr
            return
          </CharString>
          <CharString index="167">
            19 32 32 18 -19 -36 vhcurveto
            return
          </CharString>
          <CharString index="168">
            106 21 -21 243 220 return
          </CharString>
          <CharString index="169">
            21 -21 396 175 hstem
            return
          </CharString>
          <CharString index="170">
            56 21 -21 514 186 return
          </CharString>
          <CharString index="171">
            116 -116 203 return
          </CharString>
          <CharString index="172">
            126 -126 213 return
          </CharString>
          <CharString index="173">
            80 71 175 hstemhm
            return
          </CharString>
          <CharString index="174">
            -2 0 -2 1 -3 return
          </CharString>
          <CharString index="175">
            -190 vhcurveto
            endchar
          </CharString>
          <CharString index="176">
            308 0 195 -104 195 -28 184 63 195 return
          </CharString>
          <CharString index="177">
            hlineto
            -106 callsubr
            hvcurveto
            -116 vlineto
            -15 12 -99 callsubr
            return
          </CharString>
          <CharString index="178">
            vlineto
            -106 callsubr
            hvcurveto
            -51 vlineto
            -15 12 -99 callsubr
            return
          </CharString>
          <CharString index="179">
            -13 -10 -10 -13 hvcurveto
            -131 vlineto
            -13 10 -10 13 vhcurveto
            return
          </CharString>
          <CharString index="180">
            -608 -414 rmoveto
            66 219 rlineto
            32 -219 hlineto
            return
          </CharString>
          <CharString index="181">
            134 -100 100 -100 134 hstemhm
            return
          </CharString>
          <CharString index="182">
            -15 vhcurveto
            -149 hlineto
            -15 -12 -12 return
          </CharString>
          <CharString index="183">
            96 -96 165 hstemhm
            return
          </CharString>
          <CharString index="184">
            hstemhm
            65 240 return
          </CharString>
          <CharString index="185">
            32 callsubr
            172 hstemhm
            return
          </CharString>
          <CharString index="186">
            21 -21 495 205 return
          </CharString>
          <CharString index="187">
            71 -5 callsubr
            return
          </CharString>
          <CharString index="188">
            -130 rmoveto
            -149 vlineto
            -15 12 -99 callsubr
            return
          </CharString>
          <CharString index="189">
            61 -10 195 81 170 80 194 hstem
            return
          </CharString>
          <CharString index="190">
            -17 90 callgsubr
            return
          </CharString>
          <CharString index="191">
            191 -9 callsubr
            hstemhm
            return
          </CharString>
          <CharString index="192">
            -44 -169 -21 710 -20 69 167 hstemhm
            return
          </CharString>
          <CharString index="193">
            22 hhcurveto
            204 hlineto
            12 10 return
          </CharString>
          <CharString index="194">
            hstemhm
            50 244 100 245 return
          </CharString>
          <CharString index="195">
            205 495 -20 return
          </CharString>
          <CharString index="196">
            -21 520 61 callgsubr
            return
          </CharString>
          <CharString index="197">
            -17 -169 -21 180 179 182 return
          </CharString>
          <CharString index="198">
            215 -175 175 hstemhm
            50 223 return
          </CharString>
          <CharString index="199">
            175 hlineto
            15 return
          </CharString>
        <CharString name=".notdef">
          -396 endchar
        </CharString>
        <CharString name=".null">
          -686 endchar
        </CharString>
        <CharString name="A">
          10 callgsubr
          hstem
          -104 callgsubr
          endchar
        </CharString>
        <CharString name="AE">
          69 callsubr
          hstemhm
          434 240 hintmask 10111000
          284 700 rmoveto
          -27 -14 -18 -15 -4 hvcurveto
          -223 -638 rlineto
          -1 -3 0 -2 -2 vvcurveto
          -54 callgsubr
          vhcurveto
          185 hlineto
          26 9 14 11 4 hvcurveto
          hintmask 01011000
          24 66 rlineto
          149 -64 hlineto
          hintmask 10111000
          -23 callgsubr
          hintmask 01011000
          73 callsubr
          endchar
        </CharString>
        <CharString name="AEacute">
          69 callsubr
          50 172 hstemhm
          434 240 hintmask 10110100
          284 700 rmoveto
          -27 -14 -18 -15 -4 hvcurveto
          -223 -638 rlineto
          -1 -3 0 -2 -2 vvcurveto
          -54 callgsubr
          vhcurveto
          185 hlineto
          26 9 14 11 4 hvcurveto
          hintmask 01010100
          24 66 rlineto
          149 -64 hlineto
          hintmask 10110100
          -23 callgsubr
          hintmask 01010100
          73 callsubr
          hintmask 00001000
          21 493 -103 callsubr
        </CharString>
        <CharString name="Aacute">
          10 callgsubr
          70 172 -89 callsubr
          hintmask 00010000
          -151 493 -103 callsubr
        </CharString>
        <CharString name="Abreve">
          10 callgsubr
          70 67 callgsubr
          215 137 hintmask 11100000
          -104 callgsubr
          -16 620 rmoveto
          -30 -11 -25 -30 -30 -10 25 30 10 -7 9 -12 vhcurveto
          -99 23 callsubr
          -90 57 -66 120 hvcurveto
          hintmask 00010100
          -38 callgsubr
          hintmask 00001100
          -38 callsubr
          hvcurveto
          endchar
        </CharString>
        <CharString name="Acircumflex">
          10 callgsubr
          91 -21 172 -20 -89 callsubr
          -122 636 -103 callgsubr
          hintmask 00011000
          -28 callsubr
        </CharString>
        <CharString name="Acute">
          -226 750 172 hstem
          55 779 -103 callsubr
        </CharString>
        <CharString name="Adieresis">
          10 callgsubr
          70 172 hstemhm
          171 41 callsubr
          hintmask 11100000
          -104 callgsubr
          hintmask 00011100
          16 636 rmoveto
          -13 -10 -10 -13 hvcurveto
          -126 vlineto
          -13 10 -10 13 vhcurveto
          126 hlineto
          13 10 10 13 hvcurveto
          126 vlineto
          13 -10 10 -13 vhcurveto
          -397 hmoveto
          -13 -10 -10 -13 hvcurveto
          -126 vlineto
          -13 10 -10 13 vhcurveto
          126 hlineto
          13 10 10 13 hvcurveto
          126 -43 callgsubr
        </CharString>
        <CharString name="Agrave">
          10 callgsubr
          70 172 -89 callsubr
          -71 617 -83 callgsubr
          hintmask 00010000
          -43 callsubr
        </CharString>
        <CharString name="Amacron">
          10 callgsubr
          75 162 -89 callsubr
          hintmask 00010000
          -245 631 rmoveto
          -13 -10 -10 -13 hvcurveto
          -116 vlineto
          -13 10 -10 13 vhcurveto
          377 hlineto
          13 10 10 13 hvcurveto
          116 -43 callgsubr
        </CharString>
        <CharString name="Aogonek">
          99 -222 122 121 21 callsubr
          hstemhm
          547 65 callsubr
          hintmask 11110100
          284 700 rmoveto
          -27 -14 -18 -15 -4 hvcurveto
          -223 -638 rlineto
          -1 -3 0 -2 -2 vvcurveto
          -54 callgsubr
          vhcurveto
          185 hlineto
          26 9 14 11 4 hvcurveto
          24 66 78 callgsubr
          24 -66 3 -10 7 -12 18 -3 rlinecurve
          -3 -15 -2 -17 -18 26 callsubr
          hintmask 11111000
          -39 -11 29 21 20 10 28 34 2 hvcurveto
          31 hlineto
          -45 callsubr
          2 0 2 -1 3 hvcurveto
          -223 638 rlineto
          15 -4 -14 18 -27 hhcurveto
          -165 -414 rmoveto
          56 186 57 -186 rlineto
          endchar
        </CharString>
        <CharString name="Aring">
          10 callgsubr
          60 65 62 65 hstemhm
          282 81 58 82 hintmask 11100000
          -104 callgsubr
          hintmask 00011110
          -57 454 4 callgsubr
        </CharString>
        <CharString name="Atilde">
          10 callgsubr
          67 134 -100 100 -100 134 -89 callsubr
          hintmask 00001000
          20 461 rmoveto
          109 27 100 46 -69 callsubr
          -10 -13 -19 hhcurveto
          hintmask 00000100
          -39 -39 34 -60 hhcurveto
          -110 -26 -73 callgsubr
          9 12 20 hhcurveto
          hintmask 00010000
          39 39 -34 60 hhcurveto
          endchar
        </CharString>
        <CharString name="B">
          -57 callgsubr
        </CharString>
        <CharString name="Breve">
          -231 750 67 callgsubr
          50 137 hintmask 10100000
          268 906 rmoveto
          -30 -11 -25 -30 -30 -10 25 30 10 -7 9 -12 vhcurveto
          -99 23 callsubr
          -90 57 -66 120 hvcurveto
          hintmask 01100000
          -38 callgsubr
          -12 -7 -9 -10 hvcurveto
          endchar
        </CharString>
        <CharString name="C">
          61 -47 callgsubr
          hstem
          -74 callsubr
          endchar
        </CharString>
        <CharString name="CR">
          -396 endchar
        </CharString>
        <CharString name="Cacute">
          61 -47 callgsubr
          40 172 hstemhm
          -75 callsubr
          hintmask 00100000
          -41 345 -103 callsubr
        </CharString>
        <CharString name="Caron">
          -138 771 -15 callgsubr
          hstem
          339 750 -106 callgsubr
        </CharString>
        <CharString name="Ccaron">
          61 -47 callgsubr
          61 -21 172 -20 hstemhm
          -75 callsubr
          hintmask 00110000
          138 316 -106 callgsubr
        </CharString>
        <CharString name="Ccedilla">
          61 41 callgsubr
          0 23 0 195 83 164 83 195 hstemhm
          274 242 hintmask 10101111
          305 434 rmoveto
          hintmask 01010111
          61 30 20 44 34 26 -11 -43 15 vhcurveto
          -22 8 7 -7 86 callsubr
          10 12 182 -167 74 -170 -187 -148 -84 -191 hvcurveto
          -170 vlineto
          -173 110 -82 158 -16 vhcurveto
          -17 -87 rlineto
          -1 -8 0 -1 -3 vvcurveto
          hintmask 10101111
          -55 callsubr
          14 callsubr
          29 rlineto
          164 5 158 74 177 vvcurveto
          -7 callsubr
          endchar
        </CharString>
        <CharString name="Ccircumflex">
          61 -47 callgsubr
          61 60 callgsubr
          -74 callsubr
          10 656 -103 callgsubr
          hintmask 00110000
          -28 callsubr
        </CharString>
        <CharString name="Cdotaccent">
          61 -47 callgsubr
          30 182 hstemhm
          286 182 -75 callsubr
          hintmask 00110000
          4 488 -74 callgsubr
          endchar
        </CharString>
        <CharString name="Cedilla">
          -344 41 callgsubr
          -74 177 hstemhm
          50 242 hintmask 10101000
          72 -93 rmoveto
          -1 -8 0 -1 -3 vvcurveto
          hintmask 01101000
          -55 callsubr
          -26 -1 16 -25 hhcurveto
          -61 hlineto
          -7 -6 -6 -7 hvcurveto
          hintmask 10011000
          -83 242 -45 157 vvcurveto
          49 -34 42 -57 -7 -21 -1 -5 -9 vhcurveto
          18 77 rlineto
          1 4 2 4 3 vvcurveto
          58 callsubr
        </CharString>
        <CharString name="Circumflex">
          -138 771 -15 callgsubr
          hstem
          209 922 -103 callgsubr
          -28 callsubr
        </CharString>
        <CharString name="D">
          74 0 195 310 195 hstem
          65 250 vstem
          -25 callsubr
          endchar
        </CharString>
        <CharString name="Dcaron">
          74 0 195 310 195 62 callgsubr
          250 hintmask 11001000
          -25 callsubr
          hintmask 00110000
          120 555 -106 callgsubr
        </CharString>
        <CharString name="Dcroat">
          56 callsubr
          92 -69 callgsubr
          -244 -38 vlineto
          -106 callsubr
          hvcurveto
          -101 vlineto
          -15 12 -99 callsubr
          38 -247 hlineto
          -15 12 -99 callsubr
          289 hlineto
          191 143 87 189 hvcurveto
          149 vlineto
          37 callgsubr
          96 -187 vhcurveto
          -65 -195 -6 callgsubr
          79 56 hlineto
          -107 callsubr
          101 vlineto
          -107 callgsubr
          -56 hlineto
          endchar
        </CharString>
        <CharString name="Dieresis">
          -143 750 172 hstem
          50 41 callsubr
          vstem
          344 922 rmoveto
          -13 -10 -10 -13 hvcurveto
          -126 vlineto
          -13 10 -10 13 vhcurveto
          126 hlineto
          13 10 10 13 hvcurveto
          126 vlineto
          13 -10 10 -13 vhcurveto
          -397 hmoveto
          -13 -10 -10 -13 hvcurveto
          -126 vlineto
          -13 10 -10 13 vhcurveto
          126 hlineto
          13 10 10 13 hvcurveto
          126 -43 callgsubr
        </CharString>
        <CharString name="Dotaccent">
          -404 740 182 hstem
          50 182 vstem
          73 922 -74 callgsubr
          endchar
        </CharString>
        <CharString name="E">
          9 -45 callgsubr
          hstem
          65 240 cntrmask 11100000
          -96 callsubr
          endchar
        </CharString>
        <CharString name="Eacute">
          50 callsubr
          hintmask 11101000
          613 195 rmoveto
          15 12 -12 -15 hvcurveto
          -141 vlineto
          -106 callsubr
          vhcurveto
          -521 hlineto
          -15 -12 12 15 hvcurveto
          646 vlineto
          -105 callsubr
          vhcurveto
          513 hlineto
          15 12 -12 -15 hvcurveto
          -141 vlineto
          -106 callsubr
          vhcurveto
          -300 -63 278 hlineto
          15 12 -12 -15 hvcurveto
          -130 vlineto
          -106 callsubr
          vhcurveto
          -278 -63 hlineto
          hintmask 00010000
          -80 584 -103 callsubr
        </CharString>
        <CharString name="Ebreve">
          9 -45 callgsubr
          50 67 callgsubr
          65 240 -130 137 hintmask 11100100
          -96 callsubr
          -220 711 rmoveto
          -30 -11 -25 -30 -30 -10 25 30 10 -7 9 -12 vhcurveto
          -99 23 callsubr
          -90 57 -66 120 hvcurveto
          hintmask 00010010
          -38 callgsubr
          hintmask 00001010
          -38 callsubr
          hvcurveto
          endchar
        </CharString>
        <CharString name="Ecaron">
          9 -45 callgsubr
          62 callgsubr
          240 hintmask 11100100
          613 195 rmoveto
          15 12 -12 -15 hvcurveto
          -141 vlineto
          -106 callsubr
          vhcurveto
          -521 hlineto
          -15 -12 12 15 hvcurveto
          646 vlineto
          -105 callsubr
          vhcurveto
          513 hlineto
          15 12 -12 -15 hvcurveto
          -141 vlineto
          -106 callsubr
          vhcurveto
          -300 -63 278 hlineto
          15 12 -12 -15 hvcurveto
          -130 vlineto
          -106 callsubr
          vhcurveto
          -278 -63 hlineto
          hintmask 00011000
          125 555 -106 callgsubr
        </CharString>
        <CharString name="Ecircumflex">
          4 -45 callgsubr
          62 callgsubr
          240 hintmask 11100100
          -96 callsubr
          -323 727 -103 callgsubr
          hintmask 00011000
          -28 callsubr
        </CharString>
        <CharString name="Edieresis">
          50 callsubr
          -187 41 callsubr
          hintmask 11101000
          613 195 rmoveto
          15 12 -12 -15 hvcurveto
          -141 vlineto
          -106 callsubr
          vhcurveto
          -521 hlineto
          -15 -12 12 15 hvcurveto
          646 vlineto
          -105 callsubr
          vhcurveto
          513 hlineto
          15 12 -12 -15 hvcurveto
          -141 vlineto
          -106 callsubr
          vhcurveto
          -300 -63 278 hlineto
          15 12 -12 -15 hvcurveto
          -130 vlineto
          -106 callsubr
          vhcurveto
          -278 -63 hlineto
          hintmask 00010110
          107 727 rmoveto
          -13 -10 -10 -13 hvcurveto
          -126 vlineto
          -13 10 -10 13 vhcurveto
          126 hlineto
          13 10 10 13 hvcurveto
          126 vlineto
          13 -10 10 -13 vhcurveto
          -397 hmoveto
          -13 -10 -10 -13 hvcurveto
          -126 vlineto
          -13 10 -10 13 vhcurveto
          126 hlineto
          13 10 10 13 hvcurveto
          126 -43 callgsubr
        </CharString>
        <CharString name="Edotaccent">
          9 -45 callgsubr
          40 182 77 callsubr
          -47 182 hintmask 11101000
          613 195 rmoveto
          15 12 -12 -15 hvcurveto
          -141 vlineto
          -106 callsubr
          vhcurveto
          -521 hlineto
          -15 -12 12 15 hvcurveto
          646 vlineto
          -105 callsubr
          vhcurveto
          513 hlineto
          15 12 -12 -15 hvcurveto
          -141 vlineto
          -106 callsubr
          vhcurveto
          -300 -63 278 hlineto
          15 12 -12 -15 hvcurveto
          -130 vlineto
          -106 callsubr
          vhcurveto
          -278 -63 hlineto
          hintmask 00010100
          -24 727 -74 callgsubr
          endchar
        </CharString>
        <CharString name="Egrave">
          50 callsubr
          hintmask 11101000
          -96 callsubr
          -252 708 -83 callgsubr
          hintmask 00010000
          -43 callsubr
        </CharString>
        <CharString name="Emacron">
          9 -45 callgsubr
          55 162 77 callsubr
          hintmask 11101000
          613 195 rmoveto
          15 12 -12 -15 hvcurveto
          -141 vlineto
          -106 callsubr
          vhcurveto
          -521 hlineto
          -15 -12 12 15 hvcurveto
          646 vlineto
          -105 callsubr
          vhcurveto
          513 hlineto
          15 12 -12 -15 hvcurveto
          -141 vlineto
          -106 callsubr
          vhcurveto
          -300 -63 278 hlineto
          15 12 -12 -15 hvcurveto
          -130 vlineto
          -106 callsubr
          vhcurveto
          -278 -63 hlineto
          hintmask 00010000
          -152 722 rmoveto
          -13 -10 -10 -13 hvcurveto
          -116 vlineto
          -13 10 -10 13 vhcurveto
          377 hlineto
          13 10 10 13 hvcurveto
          116 -43 callgsubr
        </CharString>
        <CharString name="Eng">
          74 -306 203 124 -3 callgsubr
          -20 hstem
          20 callsubr
          vstem
          326 81 callsubr
          16 hlineto
          182 144 83 190 hvcurveto
          706 vlineto
          -107 callgsubr
          -181 hlineto
          -106 callsubr
          hvcurveto
          -273 vlineto
          -169 277 rlineto
          7 -4 -10 16 -27 hhcurveto
          -158 hlineto
          -102 callsubr
          181 hlineto
          -107 callsubr
          251 vlineto
          160 -242 rlineto
          -58 vlineto
          -61 -24 -20 -43 vhcurveto
          -40 36 callsubr
        </CharString>
        <CharString name="Eogonek">
          9 -222 122 100 195 63 184 63 195 77 callsubr
          122 65 callsubr
          hintmask 11111100
          603 -100 rmoveto
          -39 -11 29 21 21 11 29 39 hvcurveto
          10 -58 callgsubr
          vlineto
          -107 callgsubr
          -308 63 278 25 callgsubr
          -278 63 300 -58 callgsubr
          vlineto
          -107 callgsubr
          -513 hlineto
          -102 callsubr
          340 hlineto
          -3 -16 -2 -16 -18 vvcurveto
          hintmask 11111010
          1 callsubr
        </CharString>
        <CharString name="Eth">
          56 callsubr
          27 429 rmoveto
          -106 callsubr
          hvcurveto
          -101 vlineto
          -15 12 -99 callsubr
          38 -247 hlineto
          -15 12 -99 callsubr
          289 hlineto
          191 143 87 189 hvcurveto
          149 vlineto
          37 callgsubr
          96 -187 vhcurveto
          -288 hlineto
          -106 callsubr
          hvcurveto
          -244 vlineto
          250 76 -6 callgsubr
          79 56 hlineto
          -107 callsubr
          101 vlineto
          -107 callgsubr
          -56 hlineto
          endchar
        </CharString>
        <CharString name="Euro">
          114 -10 195 81 170 80 195 hstem
          52 436 -10 callsubr
          51 -1 hlineto
          -196 143 -79 192 180 157 84 162 32 callgsubr
          -10 -7 -22 -9 hvcurveto
          -32 -13 -24 -12 -34 hhcurveto
          -44 -30 20 61 hvcurveto
          94 -11 callgsubr
          -94 hlineto
          60 30 20 44 34 24 38 callgsubr
          -157 84 -180 -192 -143 -79 -196 hvcurveto
          endchar
        </CharString>
        <CharString name="F">
          -23 21 -21 215 205 74 206 hstem
          65 245 43 callgsubr
          191 hlineto
          -107 callsubr
          188 266 vlineto
          -107 callsubr
          151 vlineto
          -107 callgsubr
          -266 74 286 hlineto
          -107 callsubr
          152 vlineto
          -107 callgsubr
          endchar
        </CharString>
        <CharString name="G">
          85 -10 -1 callgsubr
          hstemhm
          -79 callgsubr
          endchar
        </CharString>
        <CharString name="Gbreve">
          85 -10 -1 callgsubr
          40 67 callgsubr
          202 137 -79 callgsubr
          -279 484 rmoveto
          -30 -11 -25 -30 -30 -10 25 30 10 -7 9 -12 vhcurveto
          -99 23 callsubr
          -90 57 -66 120 hvcurveto
          hintmask 00001010
          -38 callgsubr
          hintmask 00000110
          -38 callsubr
          hvcurveto
          endchar
        </CharString>
        <CharString name="Gcircumflex">
          85 -10 -1 callgsubr
          48 callsubr
          -79 callgsubr
          -371 500 -103 callgsubr
          hintmask 00001100
          -28 callsubr
        </CharString>
        <CharString name="Gcommaaccent">
          85 93 callgsubr
          40 -1 callgsubr
          hstemhm
          hintmask 01101000
          424 422 rmoveto
          -106 callsubr
          hvcurveto
          -111 vlineto
          -15 12 -99 callsubr
          47 hlineto
          -52 -34 -20 -50 -49 -33 25 60 vhcurveto
          170 vlineto
          50 28 25 49 49 15 -29 -10 8 vhcurveto
          hintmask 01110000
          -72 callsubr
          hintmask 10000000
          -236 -503 -94 callsubr
        </CharString>
        <CharString name="Gdotaccent">
          85 -10 -1 callgsubr
          30 182 hstemhm
          288 182 -79 callgsubr
          hintmask 00001100
          -388 500 -74 callgsubr
          endchar
        </CharString>
        <CharString name="Grave">
          -226 750 172 hstem
          303 903 -82 callgsubr
          5 -2 5 -3 3 hvcurveto
          endchar
        </CharString>
        <CharString name="H">
          61 callsubr
          237 -20 33 callsubr
          504 -69 callgsubr
          -210 -162 210 -78 callsubr
          -646 -46 callgsubr
          216 162 -216 vlineto
          -15 12 -99 callsubr
          196 -58 callsubr
          endchar
        </CharString>
        <CharString name="Hbar">
          61 callsubr
          48 125 64 -20 33 callsubr
          504 -69 callgsubr
          -37 -162 37 -78 callsubr
          -646 -46 callgsubr
          216 162 -216 vlineto
          -15 12 -99 callsubr
          196 -58 callsubr
          -385 -237 rmoveto
          48 162 -48 vlineto
          endchar
        </CharString>
        <CharString name="Hcircumflex">
          61 callsubr
          237 -20 91 -5 callsubr
          65 250 162 250 hintmask 11100110
          504 -69 callgsubr
          -210 -162 210 -78 callsubr
          -646 -46 callgsubr
          216 162 -216 vlineto
          -15 12 -99 callsubr
          196 -58 callsubr
          -374 222 -103 callgsubr
          hintmask 00011000
          -28 callsubr
        </CharString>
        <CharString name="Hungarumlaut">
          -40 750 172 hstem
          55 781 -81 callgsubr
          216 -122 -81 callgsubr
          endchar
        </CharString>
        <CharString name="I">
          88 callgsubr
          hstem
          296 hmoveto
          -107 callsubr
          646 vlineto
          -107 callgsubr
          -204 hlineto
          -102 callsubr
          endchar
        </CharString>
        <CharString name="IJ">
          385 -10 195 -164 -21 497 203 0 -20 hstemhm
          hintmask 01010000
          296 hmoveto
          -107 callsubr
          646 vlineto
          -107 callgsubr
          -204 hlineto
          -102 callsubr
          hintmask 10100000
          919 -79 callsubr
          endchar
        </CharString>
        <CharString name="Iacute">
          -297 18 callsubr
          hintmask 11000000
          296 hmoveto
          -107 callsubr
          646 vlineto
          -107 callgsubr
          -204 hlineto
          -102 callsubr
          hintmask 00100000
          11 779 -103 callsubr
        </CharString>
        <CharString name="Ibreve">
          88 callgsubr
          70 67 callgsubr
          16 137 hintmask 11000000
          296 hmoveto
          -107 callsubr
          646 vlineto
          -107 callgsubr
          -204 hlineto
          -102 callsubr
          142 906 rmoveto
          -30 -11 -25 -30 -30 -10 25 30 10 -7 9 -12 vhcurveto
          -99 23 callsubr
          -90 57 -66 120 hvcurveto
          hintmask 00101000
          -38 callgsubr
          hintmask 00011000
          -38 callsubr
          hvcurveto
          endchar
        </CharString>
        <CharString name="Icircumflex">
          -292 -42 callgsubr
          91 60 callgsubr
          300 hmoveto
          -107 callsubr
          646 vlineto
          -107 callgsubr
          -204 hlineto
          -102 callsubr
          36 922 -103 callgsubr
          hintmask 00110000
          -28 callsubr
        </CharString>
        <CharString name="Idieresis">
          -295 18 callsubr
          -20 41 callsubr
          hintmask 11000000
          299 hmoveto
          -107 callsubr
          646 vlineto
          -107 callgsubr
          -204 hlineto
          -102 callsubr
          hintmask 00111000
          179 922 rmoveto
          -13 -10 -10 -13 hvcurveto
          -126 vlineto
          -13 10 -10 13 vhcurveto
          126 hlineto
          13 10 10 13 hvcurveto
          126 vlineto
          13 -10 10 -13 vhcurveto
          -397 hmoveto
          -13 -10 -10 -13 hvcurveto
          -126 vlineto
          -13 10 -10 13 vhcurveto
          126 hlineto
          13 10 10 13 hvcurveto
          126 -43 callgsubr
        </CharString>
        <CharString name="Idotaccent">
          88 callgsubr
          60 182 hstemhm
          103 182 hintmask 11000000
          296 hmoveto
          -107 callsubr
          646 vlineto
          -107 callgsubr
          -204 hlineto
          -102 callsubr
          hintmask 00110000
          34 922 -74 callgsubr
          endchar
        </CharString>
        <CharString name="Igrave">
          -296 18 callsubr
          hintmask 11000000
          298 hmoveto
          -107 callsubr
          646 vlineto
          -107 callgsubr
          -204 hlineto
          -102 callsubr
          98 903 -83 callgsubr
          hintmask 00100000
          -43 callsubr
        </CharString>
        <CharString name="Imacron">
          88 callgsubr
          75 162 hstemhm
          hintmask 11000000
          296 hmoveto
          -107 callsubr
          646 vlineto
          -107 callgsubr
          -204 hlineto
          -102 callsubr
          hintmask 00100000
          -87 917 rmoveto
          -13 -10 -10 -13 hvcurveto
          -116 vlineto
          -13 10 -10 13 vhcurveto
          377 hlineto
          13 10 10 13 hvcurveto
          116 -43 callgsubr
        </CharString>
        <CharString name="Iogonek">
          -298 -222 122 121 -3 callgsubr
          -20 hstemhm
          110 65 callsubr
          hintmask 11110000
          286 -100 rmoveto
          -39 -11 29 21 21 11 29 39 hvcurveto
          10 hlineto
          hintmask 11101000
          -107 callsubr
          646 vlineto
          -107 callgsubr
          -204 hlineto
          -102 callsubr
          23 hlineto
          -3 -16 -2 -16 -18 vvcurveto
          1 callsubr
        </CharString>
        <CharString name="Itilde">
          88 callgsubr
          67 74 callsubr
          hintmask 11000000
          296 hmoveto
          -107 callsubr
          646 vlineto
          -107 callgsubr
          -204 hlineto
          -102 callsubr
          hintmask 00010000
          179 747 -66 callgsubr
        </CharString>
        <CharString name="J">
          57 -10 195 312 203 hstem
          683 -79 callsubr
          endchar
        </CharString>
        <CharString name="Jcircumflex">
          57 -10 195 312 203 71 60 callgsubr
          683 -79 callsubr
          -359 659 -103 callgsubr
          hintmask 00110000
          -28 callsubr
        </CharString>
        <CharString name="K">
          47 -16 callsubr
          65 245 vstem
          -91 callgsubr
          endchar
        </CharString>
        <CharString name="Kcommaaccent">
          47 93 callgsubr
          71 -3 callgsubr
          -20 hstemhm
          65 245 hintmask 01110000
          -91 callgsubr
          hintmask 10000000
          -247 -114 -94 callsubr
        </CharString>
        <CharString name="L">
          -38 0 88 callsubr
          hstem
          319 205 rmoveto
          468 vlineto
          -107 callgsubr
          -200 hlineto
          -102 callsubr
          504 -39 callgsubr
          endchar
        </CharString>
        <CharString name="Lacute">
          -38 0 88 callsubr
          70 172 hstemhm
          hintmask 11000000
          319 205 rmoveto
          468 vlineto
          -107 callgsubr
          -200 hlineto
          -102 callsubr
          504 -39 callgsubr
          hintmask 00100000
          -502 574 -103 callsubr
        </CharString>
        <CharString name="Lcaron">
          -21 0 88 callsubr
          31 -20 hstemhm
          hintmask 11000000
          319 205 rmoveto
          468 vlineto
          -107 callgsubr
          -200 hlineto
          -102 callsubr
          504 -39 callgsubr
          -228 228 rmoveto
          -2 0 2 -2 vvcurveto
          -54 callgsubr
          vhcurveto
          108 hlineto
          26 15 19 13 5 hvcurveto
          95 241 rlineto
          1 3 37 callsubr
          hintmask 10100000
          -61 callgsubr
          -165 hlineto
          -27 -18 -21 -18 -3 hvcurveto
          endchar
        </CharString>
        <CharString name="Lcommaaccent">
          -38 93 callgsubr
          50 88 callsubr
          hstemhm
          hintmask 01100000
          319 205 rmoveto
          468 vlineto
          -107 callgsubr
          -200 hlineto
          -102 callsubr
          504 -39 callgsubr
          hintmask 10000000
          -173 -286 -94 callsubr
        </CharString>
        <CharString name="Ldot">
          -38 0 205 109 182 204 -20 hstemhm
          375 182 hintmask 01010000
          398 496 -74 callgsubr
          hintmask 10100000
          -215 -291 rmoveto
          468 vlineto
          -107 callgsubr
          -200 hlineto
          -102 callsubr
          504 -39 callgsubr
          endchar
        </CharString>
        <CharString name="Lslash">
          -38 0 88 callsubr
          hstem
          37 377 rmoveto
          -16 -6 -6 -9 -18 vvcurveto
          -108 -5 callgsubr
          18 7 rlineto
          -198 vlineto
          -15 12 -99 callsubr
          504 -39 callgsubr
          -277 120 hlineto
          155 61 40 callgsubr
          108 -6 callsubr
          -145 -57 rlineto
          185 vlineto
          -107 callgsubr
          -200 hlineto
          -106 callsubr
          hvcurveto
          -285 vlineto
          endchar
        </CharString>
        <CharString name="M">
          -63 callgsubr
        </CharString>
        <CharString name="Macron">
          -163 755 162 hstem
          73 917 rmoveto
          -13 -10 -10 -13 hvcurveto
          -116 vlineto
          -13 10 -10 13 vhcurveto
          377 hlineto
          13 10 10 13 hvcurveto
          116 -43 callgsubr
        </CharString>
        <CharString name="N">
          74 -16 callsubr
          20 callsubr
          vstem
          487 -69 callgsubr
          -273 vlineto
          -169 277 rlineto
          7 -4 -10 16 -27 hhcurveto
          -158 hlineto
          -102 callsubr
          181 hlineto
          -107 callsubr
          251 vlineto
          169 -255 rlineto
          -6 4 10 -17 -40 callgsubr
          endchar
        </CharString>
        <CharString name="Nacute">
          74 18 callsubr
          65 235 160 235 hintmask 11011000
          487 -69 callgsubr
          -273 vlineto
          -169 277 rlineto
          7 -4 -10 16 -27 hhcurveto
          -158 hlineto
          -102 callsubr
          181 hlineto
          -107 callsubr
          251 vlineto
          169 -255 rlineto
          -6 4 10 -17 -40 callgsubr
          hintmask 00100000
          -413 79 -103 callsubr
        </CharString>
        <CharString name="Ncaron">
          74 -42 callgsubr
          91 -21 172 -20 44 callgsubr
          hintmask 11001100
          487 -69 callgsubr
          -273 vlineto
          -169 277 rlineto
          7 -4 -10 16 -27 hhcurveto
          -158 hlineto
          -102 callsubr
          181 hlineto
          -107 callsubr
          251 vlineto
          169 -255 rlineto
          -6 4 10 -17 -40 callgsubr
          hintmask 00110000
          -223 50 -106 callgsubr
        </CharString>
        <CharString name="Ncommaaccent">
          74 93 callgsubr
          71 -3 callgsubr
          -20 44 callgsubr
          hintmask 01111000
          487 -69 callgsubr
          -273 vlineto
          -169 277 rlineto
          7 -4 -10 16 -27 hhcurveto
          -158 hlineto
          -102 callsubr
          181 hlineto
          -107 callsubr
          251 vlineto
          169 -255 rlineto
          -6 4 10 -17 -40 callgsubr
          hintmask 10000000
          -185 -781 -94 callsubr
        </CharString>
        <CharString name="Ntilde">
          74 -42 callgsubr
          67 134 -100 100 -100 134 44 callgsubr
          hintmask 11000110
          487 -69 callgsubr
          -273 vlineto
          -169 277 rlineto
          7 -4 -10 16 -27 hhcurveto
          -158 hlineto
          -102 callsubr
          181 hlineto
          -107 callsubr
          251 vlineto
          169 -255 rlineto
          -6 4 10 -17 -40 callgsubr
          hintmask 00010000
          -210 47 -66 callgsubr
        </CharString>
        <CharString name="O">
          -18 callgsubr
          hstem
          -91 callsubr
          endchar
        </CharString>
        <CharString name="OE">
          342 -45 callgsubr
          hstem
          418 240 cntrmask 11100000
          378 hmoveto
          568 -58 callgsubr
          vlineto
          -107 callgsubr
          -288 63 258 25 callgsubr
          -258 63 280 -58 callgsubr
          vlineto
          -107 callgsubr
          -560 hlineto
          -195 -1 -138 -99 -184 vvcurveto
          -136 vlineto
          -189 138 -90 195 -1 vhcurveto
          -73 276 rmoveto
          148 vlineto
          55 30 25 43 1 vhcurveto
          40 -310 -40 hlineto
          -44 -29 25 56 hvcurveto
          endchar
        </CharString>
        <CharString name="Oacute">
          78 callsubr
          -92 callsubr
          hintmask 00100000
          -89 594 -103 callsubr
        </CharString>
        <CharString name="Obreve">
          32 callsubr
          67 callgsubr
          205 137 hintmask 11000000
          -91 callsubr
          44 721 rmoveto
          -30 -11 -25 -30 -30 -10 25 30 10 -7 9 -12 vhcurveto
          -99 23 callsubr
          -90 57 -66 120 hvcurveto
          hintmask 00101000
          -38 callgsubr
          hintmask 00011000
          -38 callsubr
          hvcurveto
          endchar
        </CharString>
        <CharString name="Ocircumflex">
          -18 callgsubr
          61 60 callgsubr
          -91 callsubr
          -65 737 -103 callgsubr
          hintmask 00110000
          -28 callsubr
        </CharString>
        <CharString name="Odieresis">
          78 callsubr
          157 41 callsubr
          -92 callsubr
          hintmask 00111000
          72 737 rmoveto
          -13 -10 -10 -13 hvcurveto
          -126 vlineto
          -13 10 -10 13 vhcurveto
          126 hlineto
          13 10 10 13 hvcurveto
          126 vlineto
          13 -10 10 -13 vhcurveto
          -397 hmoveto
          -13 -10 -10 -13 hvcurveto
          -126 vlineto
          -13 10 -10 13 vhcurveto
          126 hlineto
          13 10 10 13 hvcurveto
          126 -43 callgsubr
        </CharString>
        <CharString name="Ogonek">
          -383 -222 122 100 122 hstemhm
          40 65 callsubr
          hintmask 11100000
          216 -100 rmoveto
          -39 -11 29 21 21 11 29 39 hvcurveto
          10 hlineto
          -107 callsubr
          68 vlineto
          -107 callgsubr
          -14 hlineto
          -121 -51 -77 -95 hvcurveto
          hintmask 11010000
          1 callsubr
        </CharString>
        <CharString name="Ograve">
          78 callsubr
          hintmask 11000000
          -91 callsubr
          -1 718 -83 callgsubr
          hintmask 00100000
          -43 callsubr
        </CharString>
        <CharString name="Ohungarumlaut">
          73 -47 callgsubr
          40 172 hstemhm
          -92 callsubr
          hintmask 00100000
          -215 596 -81 callgsubr
          216 -122 -81 callgsubr
          endchar
        </CharString>
        <CharString name="Omacron">
          -18 callgsubr
          45 162 hstemhm
          -92 callsubr
          hintmask 00100000
          -186 732 rmoveto
          -13 -10 -10 -13 hvcurveto
          -116 vlineto
          -13 10 -10 13 vhcurveto
          377 hlineto
          13 10 10 13 hvcurveto
          116 -43 callgsubr
        </CharString>
        <CharString name="Oslash">
          -18 callgsubr
          hstem
          -20 callgsubr
          -117 vlineto
          -23 -9 rlineto
          -16 -6 -6 -9 -18 vvcurveto
          -108 -5 callgsubr
          34 13 rlineto
          -111 45 117 -53 151 hhcurveto
          196 138 91 189 hvcurveto
          138 vlineto
          23 9 40 callgsubr
          108 -6 callsubr
          -43 -17 rlineto
          98 -51 -111 53 -142 hhcurveto
          -525 vmoveto
          -39 -29 19 44 -5 hvcurveto
          147 58 rlineto
          -40 vlineto
          -56 -30 -25 -44 vhcurveto
          330 vmoveto
          33 26 -15 -33 10 hvcurveto
          -143 -56 rlineto
          23 vlineto
          56 31 25 43 vhcurveto
          endchar
        </CharString>
        <CharString name="Oslashacute">
          78 callsubr
          hintmask 11000000
          379 710 rmoveto
          142 111 -53 -98 51 hvcurveto
          43 17 79 callgsubr
          -108 vlineto
          -18 -6 -9 -16 -6 vhcurveto
          -23 -9 rlineto
          -138 vlineto
          -189 -138 -91 -196 -151 -117 53 111 -45 57 callgsubr
          108 vlineto
          18 6 9 16 6 vhcurveto
          23 9 rlineto
          117 vlineto
          185 138 99 196 vhcurveto
          -525 vmoveto
          44 30 25 56 hvcurveto
          40 vlineto
          -147 -58 rlineto
          -44 5 29 -19 39 hhcurveto
          330 vmoveto
          -43 -31 -25 -56 hvcurveto
          -23 vlineto
          143 56 rlineto
          33 -10 -26 15 -33 hhcurveto
          hintmask 00100000
          -104 264 -103 callsubr
        </CharString>
        <CharString name="Otilde">
          -18 callgsubr
          37 74 callsubr
          -92 callsubr
          hintmask 00010000
          75 562 -66 callgsubr
        </CharString>
        <CharString name="P">
          40 21 -21 218 185 111 186 hstem
          92 700 rmoveto
          -102 callsubr
          206 hlineto
          -107 callsubr
          191 65 vlineto
          186 120 71 26 callgsubr
          79 -186 hvcurveto
          -70 -186 rmoveto
          70 hlineto
          36 10 -32 -25 -39 -25 -15 -21 hvcurveto
          -70 hlineto
          endchar
        </CharString>
        <CharString name="Q">
          83 -65 250 -195 195 330 195 hstemhm
          hintmask 01100000
          -20 callgsubr
          -156 vlineto
          -189 138 -91 196 20 19 1 2 19 vhcurveto
          28 -35 rlineto
          hintmask 10100000
          -8 6 11 -15 25 hhcurveto
          196 hlineto
          -45 callsubr
          -2 hvcurveto
          3 -2 4 -1 2 vhcurveto
          -78 113 rlineto
          45 46 26 63 82 vvcurveto
          1 callgsubr
        </CharString>
        <CharString name="R">
          63 callsubr
          hstem
          65 250 vstem
          586 261 rmoveto
          63 40 45 66 90 vvcurveto
          151 -114 92 -192 vhcurveto
          -296 hlineto
          -102 callsubr
          196 hlineto
          -107 callsubr
          191 41 vlineto
          86 -191 rlineto
          -9 4 12 -18 27 hhcurveto
          205 hlineto
          -45 callsubr
          5 -1 2 -2 4 hvcurveto
          -394 481 rmoveto
          73 hlineto
          33 13 -29 -26 -27 -15 -24 -31 hvcurveto
          -73 hlineto
          endchar
        </CharString>
        <CharString name="Racute">
          63 callsubr
          50 172 hstemhm
          65 250 hintmask 11010000
          586 261 rmoveto
          63 40 45 66 90 vvcurveto
          151 -114 92 -192 vhcurveto
          -296 hlineto
          -102 callsubr
          196 hlineto
          -107 callsubr
          191 41 vlineto
          86 -191 rlineto
          -9 4 12 -18 27 hhcurveto
          205 hlineto
          -45 callsubr
          5 -1 2 -2 4 hvcurveto
          -394 481 rmoveto
          73 hlineto
          33 13 -29 -26 -27 -15 -24 -31 hvcurveto
          -73 hlineto
          hintmask 00100000
          -91 371 -103 callsubr
        </CharString>
        <CharString name="Rcaron">
          63 callsubr
          62 callgsubr
          250 hintmask 11001000
          586 261 rmoveto
          63 40 45 66 90 vvcurveto
          151 -114 92 -192 vhcurveto
          -296 hlineto
          -102 callsubr
          196 hlineto
          -107 callsubr
          191 41 vlineto
          86 -191 rlineto
          -9 4 12 -18 27 hhcurveto
          205 hlineto
          -45 callsubr
          5 -1 2 -2 4 hvcurveto
          -394 481 rmoveto
          73 hlineto
          33 13 -29 -26 -27 -15 -24 -31 hvcurveto
          -73 hlineto
          hintmask 00110000
          114 342 -106 callgsubr
        </CharString>
        <CharString name="Rcommaaccent">
          56 93 callgsubr
          71 -21 514 186 hstemhm
          65 250 hintmask 01110000
          586 261 rmoveto
          63 40 45 66 90 vvcurveto
          151 -114 92 -192 vhcurveto
          -296 hlineto
          -102 callsubr
          196 hlineto
          -107 callsubr
          191 41 vlineto
          86 -191 rlineto
          -9 4 12 -18 27 hhcurveto
          205 hlineto
          -45 callsubr
          5 -1 2 -2 4 hvcurveto
          -394 481 rmoveto
          73 hlineto
          33 13 -29 -26 -27 -15 -24 -31 hvcurveto
          -73 hlineto
          hintmask 10000000
          148 -489 -94 callsubr
        </CharString>
        <CharString name="Ring">
          -365 740 65 62 65 hstem
          50 81 58 82 vstem
          160 740 4 callgsubr
        </CharString>
        <CharString name="S">
          -1 callsubr
          -99 callgsubr
          endchar
        </CharString>
        <CharString name="Sacute">
          -1 callsubr
          40 172 -99 callgsubr
          hintmask 00010000
          -118 69 -103 callsubr
        </CharString>
        <CharString name="Scaron">
          -1 callsubr
          61 -21 172 -20 -99 callgsubr
          hintmask 00011000
          65 40 -106 callgsubr
        </CharString>
        <CharString name="Scedilla">
          35 -156 37 -21 21 86 23 525 195 hstemhm
          259 242 hintmask 10111000
          281 -93 rmoveto
          -1 -8 0 -1 -3 vvcurveto
          -55 callsubr
          hintmask 01111000
          14 callsubr
          29 rlineto
          178 7 133 88 141 vvcurveto
          130 -76 63 -200 25 vhcurveto
          -90 11 -21 13 19 vvcurveto
          17 14 11 34 28 18 -12 -6 7 vhcurveto
          -11 12 9 -5 19 hhcurveto
          200 hlineto
          11 10 10 12 87 -114 120 -200 -182 -123 -94 -136 -133 100 -66 158 -21 hvcurveto
          99 -13 30 -10 -24 vvcurveto
          -18 -30 -10 -45 -33 -22 8 15 -19 vhcurveto
          11 -14 -8 6 -21 hhcurveto
          -190 -49 callsubr
          -100 88 -93 179 -17 hvcurveto
          endchar
        </CharString>
        <CharString name="Scircumflex">
          -1 callsubr
          61 -21 172 -20 -99 callgsubr
          -63 212 -103 callgsubr
          hintmask 00011000
          -28 callsubr
        </CharString>
        <CharString name="Scommaaccent">
          35 93 callgsubr
          40 195 -195 235 290 195 hstemhm
          hintmask 01010000
          352 710 rmoveto
          -182 -123 -94 -136 -133 100 -66 158 -21 hvcurveto
          99 -13 30 -10 -24 vvcurveto
          -18 -30 -10 -45 -33 -22 8 15 -19 vhcurveto
          hintmask 00110000
          11 -14 -8 6 -21 hhcurveto
          -190 -49 callsubr
          -111 108 -102 221 189 143 90 146 130 -76 63 -200 25 hvcurveto
          -90 11 -21 13 19 vvcurveto
          17 14 11 34 28 18 -12 -6 7 vhcurveto
          hintmask 01010000
          -11 12 9 -5 19 hhcurveto
          200 hlineto
          11 10 10 12 87 -114 120 -200 hvcurveto
          hintmask 10000000
          101 -791 -94 callsubr
        </CharString>
        <CharString name="T">
          14 21 -21 485 215 hstem
          -71 callsubr
          endchar
        </CharString>
        <CharString name="Tbar">
          14 21 -21 255 125 105 215 hstem
          57 -69 callgsubr
          -161 vlineto
          -15 12 -99 callsubr
          166 -105 -96 hlineto
          -106 callsubr
          hvcurveto
          -71 vlineto
          -15 12 -99 callsubr
          96 -228 hlineto
          -15 12 -99 callsubr
          200 hlineto
          -107 callsubr
          228 84 vlineto
          -107 callsubr
          71 vlineto
          -107 callgsubr
          -84 105 166 hlineto
          -107 callsubr
          161 vlineto
          -107 callgsubr
          endchar
        </CharString>
        <CharString name="Tcaron">
          14 21 -21 485 215 71 60 callgsubr
          -71 callsubr
          hintmask 00110000
          -228 50 -106 callgsubr
        </CharString>
        <CharString name="Tcommaaccent">
          14 93 callgsubr
          71 -21 485 215 hstemhm
          hintmask 01100000
          -71 callsubr
          hintmask 10000000
          -207 -781 -94 callsubr
        </CharString>
        <CharString name="Thorn">
          40 21 -21 119 185 111 186 99 -20 hstem
          92 700 rmoveto
          -102 callsubr
          206 hlineto
          -107 callsubr
          92 65 vlineto
          186 120 71 26 callgsubr
          79 -186 hvcurveto
          -65 72 hlineto
          -107 callgsubr
          22 -285 rmoveto
          70 hlineto
          36 10 -32 -25 -39 -25 -15 -21 hvcurveto
          -70 hlineto
          endchar
        </CharString>
        <CharString name="Tilde">
          -159 747 74 callsubr
          hintmask 01000000
          341 747 rmoveto
          109 27 100 46 -69 callsubr
          -10 -13 -19 hhcurveto
          hintmask 00100000
          -39 -39 34 -60 hhcurveto
          -110 -26 -73 callgsubr
          9 12 20 hhcurveto
          hintmask 10000000
          39 39 -34 60 hhcurveto
          endchar
        </CharString>
        <CharString name="U">
          40 callsubr
          hstem
          22 callsubr
          vstem
          480 -69 callgsubr
          -405 vlineto
          68 callgsubr
          -49 -25 27 50 vhcurveto
          405 -78 callsubr
          -402 vlineto
          -194 133 -87 192 190 133 87 194 vhcurveto
          -8 callgsubr
          endchar
        </CharString>
        <CharString name="Uacute">
          40 callsubr
          70 172 hstemhm
          22 callsubr
          hintmask 11011000
          480 -69 callgsubr
          -405 vlineto
          68 callgsubr
          -49 -25 27 50 vhcurveto
          405 -78 callsubr
          -402 vlineto
          -194 133 -87 192 190 133 87 194 vhcurveto
          -8 callgsubr
          hintmask 00100000
          -381 79 -103 callsubr
        </CharString>
        <CharString name="Ubreve">
          40 callsubr
          70 67 callgsubr
          55 250 -98 137 109 250 hintmask 11001010
          480 -69 callgsubr
          -405 vlineto
          68 callgsubr
          -49 -25 27 50 vhcurveto
          405 -78 callsubr
          -402 vlineto
          -194 133 -87 192 190 133 87 194 vhcurveto
          -8 callgsubr
          -251 206 rmoveto
          -30 -11 -25 -30 -30 -10 25 30 10 -7 9 -12 vhcurveto
          -99 23 callsubr
          -90 57 -66 120 hvcurveto
          hintmask 00100100
          -38 callgsubr
          hintmask 00010100
          -38 callsubr
          hvcurveto
          endchar
        </CharString>
        <CharString name="Ucircumflex">
          40 callsubr
          91 -5 callsubr
          22 callsubr
          hintmask 11001100
          480 -69 callgsubr
          -405 vlineto
          68 callgsubr
          -49 -25 27 50 vhcurveto
          405 -78 callsubr
          -402 vlineto
          -194 133 -87 192 190 133 87 194 vhcurveto
          -8 callgsubr
          -362 222 -103 callgsubr
          hintmask 00110000
          -28 callsubr
        </CharString>
        <CharString name="Udieresis">
          40 callsubr
          70 172 hstemhm
          55 250 -149 41 callsubr
          -146 250 hintmask 11010010
          480 -69 callgsubr
          -405 vlineto
          68 callgsubr
          -49 -25 27 50 vhcurveto
          405 -78 callsubr
          -402 vlineto
          -194 133 -87 192 190 133 87 194 vhcurveto
          -8 callgsubr
          hintmask 00101100
          -226 222 rmoveto
          -13 -10 -10 -13 hvcurveto
          -126 vlineto
          -13 10 -10 13 vhcurveto
          126 hlineto
          13 10 10 13 hvcurveto
          126 vlineto
          13 -10 10 -13 vhcurveto
          -397 hmoveto
          -13 -10 -10 -13 hvcurveto
          -126 vlineto
          -13 10 -10 13 vhcurveto
          126 hlineto
          13 10 10 13 hvcurveto
          126 -43 callgsubr
        </CharString>
        <CharString name="Ugrave">
          40 callsubr
          70 172 hstemhm
          22 callsubr
          hintmask 11011000
          480 -69 callgsubr
          -405 vlineto
          68 callgsubr
          -49 -25 27 50 vhcurveto
          405 -78 callsubr
          -402 vlineto
          -194 133 -87 192 190 133 87 194 vhcurveto
          -8 callgsubr
          -304 203 -83 callgsubr
          hintmask 00100000
          -43 callsubr
        </CharString>
        <CharString name="Uhungarumlaut">
          40 callsubr
          70 172 hstemhm
          22 callsubr
          hintmask 11011000
          480 -69 callgsubr
          -405 vlineto
          68 callgsubr
          -49 -25 27 50 vhcurveto
          405 -78 callsubr
          -402 vlineto
          -194 133 -87 192 190 133 87 194 vhcurveto
          -8 callgsubr
          hintmask 00100000
          -499 81 -81 callgsubr
          216 -122 -81 callgsubr
          endchar
        </CharString>
        <CharString name="Umacron">
          40 callsubr
          75 162 hstemhm
          22 callsubr
          hintmask 11011000
          480 -69 callgsubr
          -405 vlineto
          68 callgsubr
          -49 -25 27 50 vhcurveto
          405 -78 callsubr
          -402 vlineto
          -194 133 -87 192 190 133 87 194 vhcurveto
          -8 callgsubr
          hintmask 00100000
          -486 217 rmoveto
          -13 -10 -10 -13 hvcurveto
          -116 vlineto
          -13 10 -10 13 vhcurveto
          377 hlineto
          13 10 10 13 hvcurveto
          116 -43 callgsubr
        </CharString>
        <CharString name="Uogonek">
          72 -232 122 810 -20 hstemhm
          55 250 -15 65 callsubr
          -50 250 hintmask 11100100
          480 -69 callgsubr
          -405 vlineto
          68 callgsubr
          -49 -25 27 50 vhcurveto
          405 -78 callsubr
          -402 vlineto
          -165 96 -87 146 -23 vhcurveto
          hintmask 11001000
          -5 -17 -2 -19 -20 26 callsubr
          hintmask 11010100
          -39 -11 29 21 21 7 24 43 11 hvcurveto
          9 2 rlineto
          138 26 90 87 160 vvcurveto
          -8 callgsubr
          endchar
        </CharString>
        <CharString name="Uring">
          40 callsubr
          60 187 -63 63 hstemhm
          55 250 -40 82 56 83 -33 250 hintmask 11001001
          480 -69 callgsubr
          -405 vlineto
          68 callgsubr
          -49 -25 27 50 vhcurveto
          405 -78 callsubr
          -402 vlineto
          -194 133 -87 192 190 133 87 194 vhcurveto
          -8 callgsubr
          hintmask 00100110
          -301 40 -37 callsubr
          hintmask 00010110
          4 callsubr
        </CharString>
        <CharString name="Utilde">
          40 callsubr
          68 17 callgsubr
          22 callsubr
          hintmask 11000110
          480 -69 callgsubr
          -405 vlineto
          68 callgsubr
          -49 -25 27 50 vhcurveto
          405 -78 callsubr
          -402 vlineto
          -194 133 -87 192 190 133 87 194 vhcurveto
          -8 callgsubr
          hintmask 00010000
          -224 48 rmoveto
          99 32 90 56 -69 callsubr
          -5 -16 -29 hhcurveto
          hintmask 00001000
          -32 -25 37 -61 hhcurveto
          -100 -31 -73 callgsubr
          4 15 30 hhcurveto
          hintmask 00100000
          28 callsubr
        </CharString>
        <CharString name="V">
          40 -16 callsubr
          268 667 rmoveto
          15 -4 -14 18 -27 hhcurveto
          -186 -49 callsubr
          -2 0 -1 1 -4 hvcurveto
          188 -638 rlineto
          -15 4 14 -18 27 hhcurveto
          228 hlineto
          27 14 18 15 4 hvcurveto
          188 638 rlineto
          1 4 0 1 2 66 callgsubr
          -186 hlineto
          -27 -14 -18 -15 -4 hvcurveto
          -95 -372 rlineto
          endchar
        </CharString>
        <CharString name="W">
          192 -16 callsubr
          -83 callsubr
          endchar
        </CharString>
        <CharString name="Wacute">
          192 18 callsubr
          -61 callsubr
          hintmask 00100000
          -197 752 -103 callsubr
        </CharString>
        <CharString name="Wcircumflex">
          192 -42 callgsubr
          91 60 callgsubr
          -83 callsubr
          -64 690 -103 callgsubr
          hintmask 00110000
          -28 callsubr
        </CharString>
        <CharString name="Wdieresis">
          192 18 callsubr
          218 41 callsubr
          -61 callsubr
          hintmask 00111000
          -9 895 rmoveto
          -13 -10 -10 -13 hvcurveto
          -126 vlineto
          -13 10 -10 13 vhcurveto
          126 hlineto
          13 10 10 13 hvcurveto
          126 vlineto
          13 -10 10 -13 vhcurveto
          -397 hmoveto
          -13 -10 -10 -13 hvcurveto
          -126 vlineto
          -13 10 -10 13 vhcurveto
          126 hlineto
          13 10 10 13 hvcurveto
          126 -43 callgsubr
        </CharString>
        <CharString name="Wgrave">
          192 18 callsubr
          hintmask 11000000
          -83 callsubr
          -16 671 -83 callgsubr
          hintmask 00100000
          -43 callsubr
        </CharString>
        <CharString name="X">
          73 -16 callsubr
          726 667 rmoveto
          3 5 0 1 5 66 callgsubr
          -207 hlineto
          -26 -12 -18 -7 -4 hvcurveto
          -76 -122 -70 122 rlineto
          7 -4 -12 18 -26 hhcurveto
          -217 -49 callsubr
          -5 1 -2 2 -4 hvcurveto
          189 -309 -210 -325 rlineto
          -3 -5 0 -4 -2 vvcurveto
          -54 callgsubr
          vhcurveto
          218 hlineto
          26 12 18 5 3 hvcurveto
          83 134 87 -134 rlineto
          -5 3 12 -18 26 hhcurveto
          225 hlineto
          -45 callsubr
          2 0 4 -3 5 hvcurveto
          -213 328 rlineto
          endchar
        </CharString>
        <CharString name="Y">
          38 -16 callsubr
          237 250 vstem
          460 hmoveto
          -107 callsubr
          197 vlineto
          225 445 rlineto
          1 2 1 4 3 66 callgsubr
          -188 hlineto
          -27 -12 -19 -6 -3 hvcurveto
          -100 -201 -100 201 rlineto
          6 -3 -12 19 -27 hhcurveto
          -188 -49 callsubr
          -3 1 -4 1 -2 hvcurveto
          225 -445 rlineto
          -197 vlineto
          -15 12 -99 callsubr
          endchar
        </CharString>
        <CharString name="Yacute">
          38 -42 callgsubr
          69 167 hstemhm
          237 250 hintmask 11010000
          460 hmoveto
          -107 callsubr
          197 vlineto
          225 445 rlineto
          1 2 1 4 3 66 callgsubr
          -188 hlineto
          -27 -12 -19 -6 -3 hvcurveto
          -100 -201 -100 201 rlineto
          6 -3 -12 19 -27 hhcurveto
          -188 -49 callsubr
          -3 1 -4 1 -2 hvcurveto
          225 -445 rlineto
          -197 vlineto
          -15 12 -99 callsubr
          hintmask 00100000
          -2 778 rmoveto
          -105 callgsubr
        </CharString>
        <CharString name="Ycircumflex">
          38 -42 callgsubr
          91 -5 callsubr
          237 250 hintmask 11001000
          460 hmoveto
          -107 callsubr
          197 vlineto
          225 445 rlineto
          1 2 1 4 3 66 callgsubr
          -188 hlineto
          -27 -12 -19 -6 -3 hvcurveto
          -100 -201 -100 201 rlineto
          6 -3 -12 19 -27 hhcurveto
          -188 -49 callsubr
          -3 1 -4 1 -2 hvcurveto
          225 -445 rlineto
          -197 vlineto
          -15 12 -99 callsubr
          34 922 -103 callgsubr
          hintmask 00110000
          -28 callsubr
        </CharString>
        <CharString name="Ydieresis">
          38 18 callsubr
          141 172 -76 250 -75 172 hintmask 11001000
          460 hmoveto
          -107 callsubr
          197 vlineto
          225 445 rlineto
          1 2 1 4 3 66 callgsubr
          -188 hlineto
          -27 -12 -19 -6 -3 hvcurveto
          -100 -201 -100 201 rlineto
          6 -3 -12 19 -27 hhcurveto
          -188 -49 callsubr
          -3 1 -4 1 -2 hvcurveto
          225 -445 rlineto
          -197 vlineto
          -15 12 -99 callsubr
          hintmask 00110100
          171 922 rmoveto
          -13 -10 -10 -13 hvcurveto
          -126 vlineto
          -13 10 -10 13 vhcurveto
          126 hlineto
          13 10 10 13 hvcurveto
          126 vlineto
          13 -10 10 -13 vhcurveto
          -397 hmoveto
          -13 -10 -10 -13 hvcurveto
          -126 vlineto
          -13 10 -10 13 vhcurveto
          126 hlineto
          13 10 10 13 hvcurveto
          126 -43 callgsubr
        </CharString>
        <CharString name="Ygrave">
          38 18 callsubr
          237 250 hintmask 11010000
          460 hmoveto
          -107 callsubr
          197 vlineto
          225 445 rlineto
          1 2 1 4 3 66 callgsubr
          -188 hlineto
          -27 -12 -19 -6 -3 hvcurveto
          -100 -201 -100 201 rlineto
          6 -3 -12 19 -27 hhcurveto
          -188 -49 callsubr
          -3 1 -4 1 -2 hvcurveto
          225 -445 rlineto
          -197 vlineto
          -15 12 -99 callsubr
          99 903 -83 callgsubr
          hintmask 00100000
          -43 callsubr
        </CharString>
        <CharString name="Z">
          47 callgsubr
          hstem
          379 205 rmoveto
          265 293 rlineto
          8 8 5 11 14 vvcurveto
          142 vlineto
          -107 callgsubr
          -553 hlineto
          -106 callsubr
          hvcurveto
          -149 vlineto
          -15 12 -99 callsubr
          263 hlineto
          -280 -291 rlineto
          -5 -5 -10 -11 -19 vvcurveto
          -144 vlineto
          -15 12 -99 callsubr
          571 -39 callgsubr
          endchar
        </CharString>
        <CharString name="Zacute">
          47 callgsubr
          50 172 hstemhm
          hintmask 11000000
          379 205 rmoveto
          265 293 rlineto
          8 8 5 11 14 vvcurveto
          142 vlineto
          -107 callgsubr
          -553 hlineto
          -106 callsubr
          hvcurveto
          -149 vlineto
          -15 12 -99 callsubr
          263 hlineto
          -280 -291 rlineto
          -5 -5 -10 -11 -19 vvcurveto
          -144 vlineto
          -15 12 -99 callsubr
          571 -39 callgsubr
          hintmask 00100000
          -419 574 -103 callsubr
        </CharString>
        <CharString name="Zcaron">
          47 callgsubr
          71 60 callgsubr
          379 205 rmoveto
          265 293 rlineto
          8 8 5 11 14 vvcurveto
          142 vlineto
          -107 callgsubr
          -553 hlineto
          -106 callsubr
          hvcurveto
          -149 vlineto
          -15 12 -99 callsubr
          263 hlineto
          -280 -291 rlineto
          -5 -5 -10 -11 -19 vvcurveto
          -144 vlineto
          -15 12 -99 callsubr
          571 -39 callgsubr
          hintmask 00110000
          -220 545 -106 callgsubr
        </CharString>
        <CharString name="Zdotaccent">
          47 callgsubr
          40 182 hstemhm
          268 182 hintmask 11000000
          379 205 rmoveto
          265 293 rlineto
          8 8 5 11 14 vvcurveto
          142 vlineto
          -107 callgsubr
          -553 hlineto
          -106 callsubr
          hvcurveto
          -149 vlineto
          -15 12 -99 callsubr
          263 hlineto
          -280 -291 rlineto
          -5 -5 -10 -11 -19 vvcurveto
          -144 vlineto
          -15 12 -99 callsubr
          571 -39 callgsubr
          hintmask 00110000
          -352 717 -74 callgsubr
          endchar
        </CharString>
        <CharString name="a">
          -41 -10 148 -117 -21 358 -36 callsubr
          12 callsubr
          hintmask 10101100
          -68 callgsubr
          hintmask 01101100
          -93 callsubr
          hintmask 10011100
          -98 callsubr
          endchar
        </CharString>
        <CharString name="aacute">
          -65 callgsubr
          hintmask 00001000
          -87 460 rmoveto
          -105 callgsubr
        </CharString>
        <CharString name="abreve">
          -41 -10 148 -117 -21 358 -36 callsubr
          38 76 callsubr
          35 225 -100 132 68 240 hintmask 1010001010000000
          -68 callgsubr
          hintmask 0110001010000000
          -93 callsubr
          hintmask 1001001010000000
          -98 callsubr
          75 576 -80 callsubr
          hvcurveto
          hintmask 0000100100000000
          -51 callsubr
          hintmask 0000010100000000
          -38 callsubr
          hvcurveto
          endchar
        </CharString>
        <CharString name="acircumflex">
          -41 -10 148 -117 -21 358 -36 callsubr
          60 -21 167 -20 12 callsubr
          hintmask 10100011
          -68 callgsubr
          hintmask 01100011
          -93 callsubr
          hintmask 10010011
          -98 callsubr
          -32 598 -104 callsubr
          hintmask 00001100
          -33 callgsubr
        </CharString>
        <CharString name="acute">
          -236 569 167 hstem
          55 598 rmoveto
          -105 callgsubr
        </CharString>
        <CharString name="adieresis">
          -41 -10 148 -117 -21 358 -36 callsubr
          39 167 55 callsubr
          -128 167 61 240 -232 167 hintmask 1010010100000000
          -68 callgsubr
          hintmask 0110010100000000
          -93 callsubr
          hintmask 1001010100000000
          -98 callsubr
          hintmask 0000101010000000
          -143 598 rmoveto
          -101 callgsubr
        </CharString>
        <CharString name="ae">
          38 callsubr
          52 callgsubr
          242 hintmask 10110110
          18 callgsubr
          hintmask 01110110
          13 -9 9 -13 vhcurveto
          -189 hlineto
          -16 -5 -2 -12 -12 hvcurveto
          hintmask 10110110
          -17 callsubr
          hintmask 10101110
          -98 callsubr
          344 252 rmoveto
          25 15 -19 -41 hvcurveto
          -4 -80 4 vlineto
          41 14 19 26 vhcurveto
          endchar
        </CharString>
        <CharString name="aeacute">
          38 callsubr
          39 167 52 callgsubr
          242 hintmask 10110011
          18 callgsubr
          hintmask 01110011
          13 -9 9 -13 vhcurveto
          -189 hlineto
          -16 -5 -2 -12 -12 hvcurveto
          hintmask 10110011
          -17 callsubr
          hintmask 10101011
          -98 callsubr
          344 252 rmoveto
          25 15 -19 -41 hvcurveto
          -4 -80 4 vlineto
          41 14 19 26 vhcurveto
          hintmask 00000100
          -249 208 rmoveto
          -105 callgsubr
        </CharString>
        <CharString name="afii10017">
          10 callgsubr
          hstem
          -104 callgsubr
          endchar
        </CharString>
        <CharString name="afii10018">
          10 0 172 108 167 58 195 hstem
          65 250 109 242 43 callgsubr
          287 hlineto
          181 106 87 141 141 -114 78 -173 hvcurveto
          -64 58 256 -58 callgsubr
          vlineto
          -107 callgsubr
          -256 -420 rmoveto
          63 hlineto
          30 16 -28 -24 -22 -13 -34 -33 hvcurveto
          -63 hlineto
          endchar
        </CharString>
        <CharString name="afii10019">
          -57 callgsubr
        </CharString>
        <CharString name="afii10020">
          -43 79 callsubr
          hstem
          596 495 rmoveto
          -107 callsubr
          151 vlineto
          -107 callgsubr
          -504 hlineto
          -102 callsubr
          200 hlineto
          -107 callsubr
          468 vlineto
          endchar
        </CharString>
        <CharString name="afii10021">
          186 -102 -21 123 220 260 220 hstemhm
          50 250 -150 250 102 250 -180 250 hintmask 11101100
          177 -69 callgsubr
          -376 vlineto
          -51 -31 -26 -38 vhcurveto
          -4 hlineto
          hintmask 11110010
          -106 callsubr
          hvcurveto
          -289 -46 callgsubr
          96 272 -96 vlineto
          -15 12 -99 callsubr
          196 hlineto
          -107 callsubr
          289 vlineto
          -107 callgsubr
          hintmask 11101100
          -43 453 hlineto
          -107 callgsubr
          -223 -220 rmoveto
          -260 -111 vlineto
          6 13 3 45 18 vvcurveto
          184 vlineto
          endchar
        </CharString>
        <CharString name="afii10022">
          9 -45 callgsubr
          hstem
          65 240 cntrmask 11100000
          -96 callsubr
          endchar
        </CharString>
        <CharString name="afii10023">
          50 callsubr
          -185 41 callsubr
          hintmask 11101000
          613 195 rmoveto
          15 12 -12 -15 hvcurveto
          -141 vlineto
          -106 callsubr
          vhcurveto
          -521 hlineto
          -15 -12 12 15 hvcurveto
          646 vlineto
          -105 callsubr
          vhcurveto
          513 hlineto
          15 12 -12 -15 hvcurveto
          -141 vlineto
          -106 callsubr
          vhcurveto
          -300 -63 278 hlineto
          15 12 -12 -15 hvcurveto
          -130 vlineto
          -106 callsubr
          vhcurveto
          -278 -63 hlineto
          hintmask 00010110
          109 727 rmoveto
          -13 -10 -10 -13 hvcurveto
          -126 vlineto
          -13 10 -10 13 vhcurveto
          126 hlineto
          13 10 10 13 hvcurveto
          126 vlineto
          13 -10 10 -13 vhcurveto
          -397 hmoveto
          -13 -10 -10 -13 hvcurveto
          -126 vlineto
          -13 10 -10 13 vhcurveto
          126 hlineto
          13 10 10 13 hvcurveto
          126 -43 callgsubr
        </CharString>
        <CharString name="afii10024">
          305 -16 callsubr
          383 225 vstem
          811 365 rmoveto
          150 302 rlineto
          2 3 1 4 4 66 callgsubr
          -191 hlineto
          -25 -12 -16 -6 -3 hvcurveto
          -103 -233 rlineto
          228 vlineto
          -107 callgsubr
          -171 hlineto
          -106 callsubr
          hvcurveto
          -228 vlineto
          -103 233 rlineto
          6 -3 -12 16 -25 hhcurveto
          -191 -49 callsubr
          -4 1 -4 2 -3 hvcurveto
          150 -302 -167 -332 rlineto
          -2 -3 -1 -5 -3 vvcurveto
          -54 callgsubr
          vhcurveto
          198 hlineto
          27 12 19 4 2 hvcurveto
          112 248 rlineto
          -244 vlineto
          -15 12 -99 callsubr
          171 hlineto
          -107 callsubr
          244 vlineto
          112 -248 rlineto
          -4 2 12 -19 27 hhcurveto
          198 hlineto
          -45 callsubr
          3 -1 5 -2 3 hvcurveto
          endchar
        </CharString>
        <CharString name="afii10025">
          56 -10 193 -193 229 41 178 41 231 -195 195 hstemhm
          hintmask 10110000
          427 470 rmoveto
          -25 -18 -7 -47 vhcurveto
          -101 hlineto
          -15 -12 -14 -15 hvcurveto
          -120 vlineto
          -15 12 -14 15 vhcurveto
          101 hlineto
          47 23 -8 -25 -24 -19 -20 -50 -42 -13 9 11 -11 hvcurveto
          hintmask 01110000
          9 -9 -7 7 -18 hhcurveto
          -201 -49 callsubr
          -79 84 -128 241 189 138 96 123 44 -19 60 -78 33 hvcurveto
          76 38 16 62 44 vvcurveto
          123 -133 97 -189 -241 -79 -130 -79 -54 callgsubr
          vhcurveto
          201 hlineto
          18 7 7 9 9 hvcurveto
          hintmask 10101000
          11 11 8 9 42 hhcurveto
          50 14 -21 -24 hvcurveto
          endchar
        </CharString>
        <CharString name="afii10026">
          74 -16 callsubr
          20 callsubr
          43 callgsubr
          158 hlineto
          27 10 17 6 4 hvcurveto
          169 255 rlineto
          -251 vlineto
          -15 12 -99 callsubr
          181 -58 callsubr
          -158 hlineto
          -27 -10 -16 -7 -4 hvcurveto
          -169 -277 rlineto
          273 vlineto
          -107 callgsubr
          endchar
        </CharString>
        <CharString name="afii10027">
          74 -42 callgsubr
          70 67 callgsubr
          65 235 -100 137 123 235 hintmask 11001010
          92 700 rmoveto
          -102 callsubr
          158 hlineto
          27 10 17 6 4 hvcurveto
          169 255 rlineto
          -251 vlineto
          -15 12 -99 callsubr
          181 -58 callsubr
          -158 hlineto
          -27 -10 -16 -7 -4 hvcurveto
          -169 -277 rlineto
          273 vlineto
          -107 callgsubr
          145 206 rmoveto
          -30 -11 -25 -30 -30 -10 25 30 10 -7 9 -12 vhcurveto
          -99 23 callsubr
          -90 57 -66 120 hvcurveto
          hintmask 00100100
          -38 callgsubr
          hintmask 00010100
          -38 callsubr
          hvcurveto
          endchar
        </CharString>
        <CharString name="afii10028">
          47 -16 callsubr
          65 245 vstem
          -91 callgsubr
          endchar
        </CharString>
        <CharString name="afii10029">
          122 -10 201 -170 -21 480 220 hstemhm
          121 250 122 250 hintmask 10111000
          43 callsubr
          hintmask 01111000
          -15 12 -99 callsubr
          196 -58 callsubr
          -568 hlineto
          -106 callsubr
          hvcurveto
          -405 vlineto
          hintmask 10111000
          68 callgsubr
          -106 callsubr
          vhcurveto
          -147 vlineto
          -15 13 -99 callsubr
          endchar
        </CharString>
        <CharString name="afii10030">
          -63 callgsubr
        </CharString>
        <CharString name="afii10031">
          61 callsubr
          237 -20 33 callsubr
          504 -69 callgsubr
          -210 -162 210 -78 callsubr
          -646 -46 callgsubr
          216 162 -216 vlineto
          -15 12 -99 callsubr
          196 -58 callsubr
          endchar
        </CharString>
        <CharString name="afii10032">
          -18 callgsubr
          hstem
          -91 callsubr
          endchar
        </CharString>
        <CharString name="afii10033">
          106 21 -21 480 220 33 callsubr
          92 -69 callgsubr
          -646 -46 callgsubr
          453 162 -453 vlineto
          -15 12 -99 callsubr
          196 -58 callsubr
          endchar
        </CharString>
        <CharString name="afii10034">
          30 21 -21 218 185 111 186 hstem
          92 700 rmoveto
          -102 callsubr
          206 hlineto
          -107 callsubr
          191 65 vlineto
          186 120 71 26 callgsubr
          79 -186 hvcurveto
          -70 -186 rmoveto
          70 hlineto
          36 10 -32 -25 -39 -25 -15 -21 hvcurveto
          -70 hlineto
          endchar
        </CharString>
        <CharString name="afii10035">
          61 -47 callgsubr
          hstem
          -74 callsubr
          endchar
        </CharString>
        <CharString name="afii10036">
          14 21 -21 485 215 hstem
          -71 callsubr
          endchar
        </CharString>
        <CharString name="afii10037">
          42 0 214 486 -20 hstem
          104 -50 callgsubr
          endchar
        </CharString>
        <CharString name="afii10038">
          153 1 -21 740 -20 hstem
          30 220 57 220 57 225 vstem
          809 355 rmoveto
          154 -116 92 -161 29 vhcurveto
          63 vlineto
          -107 callgsubr
          -176 hlineto
          -106 callsubr
          hvcurveto
          -63 vlineto
          -155 -29 -117 -91 -155 vvcurveto
          -151 111 -101 161 -32 vhcurveto
          -64 vlineto
          -15 12 -99 callsubr
          176 hlineto
          -107 callsubr
          63 vlineto
          162 29 115 95 161 vvcurveto
          -225 -1 rmoveto
          -47 -22 -28 -35 -16 vhcurveto
          174 vlineto
          35 -15 22 -26 -42 vvcurveto
          -334 1 rmoveto
          41 21 26 36 15 vhcurveto
          -174 vlineto
          -36 16 -21 29 47 vvcurveto
          endchar
        </CharString>
        <CharString name="afii10039">
          73 -16 callsubr
          726 667 rmoveto
          3 5 0 1 5 66 callgsubr
          -207 hlineto
          -26 -12 -18 -7 -4 hvcurveto
          -76 -122 -70 122 rlineto
          7 -4 -12 18 -26 hhcurveto
          -217 -49 callsubr
          -5 1 -2 2 -4 hvcurveto
          189 -309 -210 -325 rlineto
          -3 -5 0 -4 -2 vvcurveto
          -54 callgsubr
          vhcurveto
          218 hlineto
          26 12 18 5 3 hvcurveto
          83 134 87 -134 rlineto
          -5 3 12 -18 26 hhcurveto
          225 hlineto
          -45 callsubr
          2 0 4 -3 5 hvcurveto
          -213 328 rlineto
          endchar
        </CharString>
        <CharString name="afii10040">
          102 85 callgsubr
          250 102 250 -104 205 hintmask 11110100
          315 220 rmoveto
          453 vlineto
          -107 callgsubr
          -196 hlineto
          -15 -12 -11 -16 hvcurveto
          -646 vlineto
          -15 12 -99 callsubr
          471 -97 hlineto
          -15 12 -99 callsubr
          151 hlineto
          -107 callsubr
          290 vlineto
          -107 callgsubr
          hintmask 11111000
          -74 453 hlineto
          -107 callgsubr
          -196 46 callsubr
          vlineto
          endchar
        </CharString>
        <CharString name="afii10041">
          65 21 -21 206 228 266 -20 hstem
          291 673 rmoveto
          -107 callgsubr
          -205 hlineto
          -106 callsubr
          hvcurveto
          -1 -157 rlineto
          -209 -1 129 -101 196 hhcurveto
          71 -179 hlineto
          -15 12 -99 callsubr
          206 -58 callsubr
          -206 hlineto
          -106 callsubr
          hvcurveto
          -239 -68 vlineto
          -44 -23 22 56 hvcurveto
          endchar
        </CharString>
        <CharString name="afii10042">
          297 0 220 480 -20 hstem
          65 240 77 220 76 240 vstem
          891 hmoveto
          -107 callsubr
          646 vlineto
          -25 callgsubr
        </CharString>
        <CharString name="afii10043">
          353 85 callgsubr
          240 77 220 76 240 -104 205 hintmask 11111010
          814 hmoveto
          -97 vlineto
          -15 12 -99 callsubr
          151 hlineto
          -107 callsubr
          290 vlineto
          -107 callgsubr
          hintmask 11111100
          -74 453 hlineto
          -25 callgsubr
        </CharString>
        <CharString name="afii10044">
          135 0 186 111 185 23 195 hstem
          485 -37 callgsubr
          -346 hlineto
          -106 callsubr
          hvcurveto
          -141 vlineto
          -15 12 -99 callsubr
          113 -478 hlineto
          -15 12 -99 callsubr
          228 297 rmoveto
          70 hlineto
          6 callsubr
          endchar
        </CharString>
        <CharString name="afii10045">
          370 0 186 111 185 218 -20 hstem
          390 -37 callgsubr
          -206 hlineto
          -102 callsubr
          228 297 rmoveto
          70 hlineto
          6 callsubr
          644 -186 rmoveto
          -107 callsubr
          646 vlineto
          -107 callgsubr
          -204 hlineto
          -102 callsubr
          endchar
        </CharString>
        <CharString name="afii10046">
          40 0 186 111 185 218 -20 hstem
          390 -37 callgsubr
          -206 hlineto
          -102 callsubr
          228 297 rmoveto
          70 hlineto
          6 callsubr
          endchar
        </CharString>
        <CharString name="afii10047">
          82 callsubr
          712 396 rmoveto
          196 -138 118 -202 -180 -152 -103 -142 -54 callgsubr
          vhcurveto
          194 hlineto
          22 10 7 22 9 hvcurveto
          32 13 29 12 34 hhcurveto
          44 35 -20 -60 hvcurveto
          -114 70 callsubr
          114 hlineto
          -61 -35 -20 -44 -34 -29 12 32 -13 vhcurveto
          22 -9 -10 7 -22 hhcurveto
          -194 -49 callsubr
          -142 152 -104 180 202 138 119 196 hvcurveto
          endchar
        </CharString>
        <CharString name="afii10048">
          419 -10 195 -164 -21 243 220 52 195 -10 -20 hstemhm
          65 250 hintmask 10110100
          726 710 rmoveto
          -183 -132 -86 -161 -17 hvcurveto
          -79 210 hlineto
          hintmask 01101100
          -107 callgsubr
          -196 hlineto
          -106 callsubr
          hvcurveto
          -646 -46 callgsubr
          216 78 vlineto
          hintmask 10110100
          -171 12 134 -82 187 hhcurveto
          196 138 91 189 hvcurveto
          1 callgsubr
        </CharString>
        <CharString name="afii10049">
          63 callsubr
          hstem
          427 250 vstem
          33 33 rmoveto
          -2 -4 -1 -2 -5 vvcurveto
          -54 callgsubr
          vhcurveto
          205 hlineto
          27 12 18 9 4 hvcurveto
          86 191 rlineto
          41 -191 hlineto
          -15 12 -99 callsubr
          196 -58 callsubr
          -296 hlineto
          -192 -114 -92 -151 -90 45 -66 63 -40 hvcurveto
          271 147 rmoveto
          -73 hlineto
          -31 -15 24 27 26 13 29 33 hvcurveto
          73 hlineto
          endchar
        </CharString>
        <CharString name="afii10050">
          -43 79 callsubr
          104 -20 hstem
          408 215 vstem
          596 495 rmoveto
          -107 callsubr
          255 vlineto
          -107 callgsubr
          -161 hlineto
          -106 callsubr
          hvcurveto
          -77 -316 vlineto
          -102 callsubr
          200 hlineto
          -107 callsubr
          468 vlineto
          endchar
        </CharString>
        <CharString name="afii10051">
          127 -201 180 42 -21 280 190 53 177 hstem
          176 239 116 237 vstem
          768 222 rmoveto
          178 -104 70 -193 vhcurveto
          -56 53 150 hlineto
          13 10 10 13 hvcurveto
          131 vlineto
          13 -10 10 -13 vhcurveto
          -512 10 callsubr
          253 56 vlineto
          39 21 -19 -46 hvcurveto
          -137 12 callgsubr
          endchar
        </CharString>
        <CharString name="afii10052">
          -43 79 callsubr
          49 167 hstemhm
          hintmask 11000000
          319 495 rmoveto
          -468 vlineto
          -106 callsubr
          vhcurveto
          -200 hlineto
          -15 -12 12 15 hvcurveto
          646 vlineto
          -105 callsubr
          vhcurveto
          504 hlineto
          15 12 -12 -15 hvcurveto
          -151 vlineto
          -106 callsubr
          vhcurveto
          hintmask 00100000
          -346 283 rmoveto
          -105 callgsubr
        </CharString>
        <CharString name="afii10053">
          82 callsubr
          40 305 rmoveto
          -196 138 -119 202 180 152 104 142 -61 callgsubr
          -194 hlineto
          -22 -10 -7 -22 -9 hvcurveto
          -32 -13 -29 -12 -34 hhcurveto
          -44 -35 20 61 hvcurveto
          114 -11 callgsubr
          -114 hlineto
          60 35 20 44 34 29 -12 -32 13 vhcurveto
          -22 9 10 -7 22 hhcurveto
          194 hlineto
          -45 callsubr
          142 -152 103 -180 -202 -138 -118 -196 hvcurveto
          endchar
        </CharString>
        <CharString name="afii10054">
          -1 callsubr
          -99 callgsubr
          endchar
        </CharString>
        <CharString name="afii10055">
          -308 -16 callsubr
          296 hmoveto
          -107 callsubr
          646 vlineto
          -107 callgsubr
          -204 hlineto
          -102 callsubr
          endchar
        </CharString>
        <CharString name="afii10056">
          -298 18 callsubr
          -23 41 callsubr
          hintmask 11000000
          296 hmoveto
          -107 callsubr
          646 vlineto
          -107 callgsubr
          -204 hlineto
          -102 callsubr
          hintmask 00111000
          179 922 rmoveto
          -13 -10 -10 -13 hvcurveto
          -126 vlineto
          -13 10 -10 13 vhcurveto
          126 hlineto
          13 10 10 13 hvcurveto
          126 vlineto
          13 -10 10 -13 vhcurveto
          -397 hmoveto
          -13 -10 -10 -13 hvcurveto
          -126 vlineto
          -13 10 -10 13 vhcurveto
          126 hlineto
          13 10 10 13 hvcurveto
          126 -43 callgsubr
        </CharString>
        <CharString name="afii10057">
          57 -10 195 312 203 hstem
          683 -79 callsubr
          endchar
        </CharString>
        <CharString name="afii10058">
          468 0 191 -180 -21 307 185 -2 220 hstemhm
          121 250 hintmask 01011000
          43 callsubr
          hintmask 10101000
          -15 12 -99 callsubr
          298 hlineto
          186 120 79 26 callgsubr
          71 -186 hvcurveto
          -65 191 hlineto
          hintmask 10011000
          -107 callgsubr
          -578 hlineto
          -106 callsubr
          hvcurveto
          -405 vlineto
          68 callgsubr
          -106 callsubr
          vhcurveto
          -147 vlineto
          hintmask 01101000
          -15 13 -99 callsubr
          699 307 rmoveto
          70 hlineto
          6 callsubr
          endchar
        </CharString>
        <CharString name="afii10059">
          446 0 186 57 220 -166 185 218 -20 hstemhm
          65 250 hintmask 10111000
          796 -37 callgsubr
          -206 hlineto
          -106 callsubr
          hvcurveto
          hintmask 11011000
          -210 -156 210 -78 callsubr
          -646 -46 callgsubr
          216 156 -216 vlineto
          -15 12 -99 callsubr
          hintmask 10111000
          228 297 rmoveto
          70 hlineto
          hintmask 11011000
          6 callsubr
          endchar
        </CharString>
        <CharString name="afii10060">
          130 21 -21 266 200 57 177 hstem
          176 239 116 240 vstem
          531 27 rmoveto
          -15 12 -99 callsubr
          186 hlineto
          -107 callsubr
          181 vlineto
          178 -107 80 -193 vhcurveto
          -56 57 148 hlineto
          13 10 10 13 hvcurveto
          131 vlineto
          13 -10 10 -13 vhcurveto
          -510 10 callsubr
          239 56 vlineto
          39 21 -19 -46 hvcurveto
          endchar
        </CharString>
        <CharString name="afii10061">
          47 18 callsubr
          65 245 hintmask 11010000
          -91 callgsubr
          hintmask 00100000
          -465 746 -103 callsubr
        </CharString>
        <CharString name="afii10062">
          52 0 214 486 61 callgsubr
          218 132 hintmask 11000000
          114 -50 callgsubr
          217 680 -80 callsubr
          hvcurveto
          hintmask 00101000
          -51 callsubr
          hintmask 00011000
          -38 callsubr
          hvcurveto
          endchar
        </CharString>
        <CharString name="afii10065">
          -41 -10 148 -117 -21 358 -36 callsubr
          12 callsubr
          hintmask 10101100
          -68 callgsubr
          hintmask 01101100
          -93 callsubr
          hintmask 10011100
          -71 callgsubr
          -21 -86 -55 -97 vvcurveto
          263 -11 rmoveto
          -25 -13 13 15 14 9 15 35 8 hvcurveto
          59 13 rlineto
          -54 -26 -24 -39 vhcurveto
          endchar
        </CharString>
        <CharString name="afii10066">
          -41 -10 160 170 160 250 -20 46 callgsubr
          315 714 rmoveto
          -16 -78 -264 -83 -266 vvcurveto
          -61 vlineto
          13 callgsubr
          174 116 79 157 vhcurveto
          18 vlineto
          152 -120 79 -157 5 vhcurveto
          42 53 53 46 43 41 rrcurveto
          30 28 4 18 37 vvcurveto
          -107 callgsubr
          -143 hlineto
          -15 -9 -10 -6 -1 hvcurveto
          55 -489 rmoveto
          -51 -12 -24 -33 -33 -12 21 54 vhcurveto
          18 vlineto
          51 12 26 33 33 12 -26 -51 vhcurveto
          endchar
        </CharString>
        <CharString name="afii10067">
          -41 0 137 51 144 51 137 hstemhm
          50 224 116 215 -215 235 cntrmask 11100000
          hintmask 11110100
          364 hmoveto
          186 75 63 96 53 -27 32 -39 23 hvcurveto
          hintmask 11111000
          26 22 20 32 43 vvcurveto
          96 -75 60 -186 vhcurveto
          -267 -97 callsubr
          197 188 rmoveto
          70 hlineto
          31 15 -5 -19 -19 -10 -8 -36 hvcurveto
          -70 hlineto
          246 vmoveto
          70 hlineto
          36 10 -8 -19 -19 -15 -5 -31 hvcurveto
          -70 hlineto
          endchar
        </CharString>
        <CharString name="afii10068">
          -156 21 -21 345 175 hstem
          50 230 vstem
          -16 callgsubr
          193 vlineto
          -107 callsubr
          121 vlineto
          -107 callgsubr
          endchar
        </CharString>
        <CharString name="afii10069">
          21 -82 -21 102 166 190 165 hstemhm
          40 188 -103 207 61 208 -122 188 hintmask 11110010
          640 -103 rmoveto
          -107 callsubr
          214 vlineto
          -107 callgsubr
          hintmask 11101100
          -39 328 hlineto
          -107 callgsubr
          -422 hlineto
          -106 callsubr
          hvcurveto
          -282 vlineto
          -24 -10 -22 -18 vhcurveto
          -30 hlineto
          hintmask 11110010
          -106 callsubr
          hvcurveto
          -214 vlineto
          -15 12 -99 callsubr
          134 hlineto
          -107 callsubr
          75 251 -75 vlineto
          -15 12 -99 callsubr
          hintmask 11101100
          -174 458 rmoveto
          61 -185 -65 hlineto
          2 16 2 16 18 vvcurveto
          endchar
        </CharString>
        <CharString name="afii10070">
          -68 callsubr
          -29 callsubr
          hintmask 01111000
          -102 callgsubr
          hintmask 10111000
          -94 callgsubr
          endchar
        </CharString>
        <CharString name="afii10071">
          29 callsubr
          -162 167 69 167 hintmask 01110100
          -102 callgsubr
          hintmask 10110100
          -94 callgsubr
          hintmask 00001011
          -179 346 rmoveto
          -101 callgsubr
        </CharString>
        <CharString name="afii10072">
          197 34 callsubr
          337 209 vstem
          337 338 rmoveto
          -79 165 rlineto
          5 -3 -8 12 -18 hhcurveto
          -172 hlineto
          -13 -11 -11 -13 -6 3 -6 2 -3 hvcurveto
          108 -196 -131 -248 rlineto
          -2 -3 -2 -4 -6 vvcurveto
          -13 11 -11 13 vhcurveto
          180 hlineto
          20 9 14 3 2 hvcurveto
          91 189 rlineto
          -179 vlineto
          -15 12 -99 callsubr
          155 hlineto
          -107 callsubr
          180 vlineto
          92 -190 rlineto
          -3 2 9 -14 20 hhcurveto
          180 hlineto
          13 11 11 13 6 -2 4 -2 3 hvcurveto
          -132 249 107 195 -13 callgsubr
          -172 hlineto
          -18 -8 -12 -5 -3 hvcurveto
          -78 -164 rlineto
          154 vlineto
          -107 callgsubr
          -155 36 callsubr
        </CharString>
        <CharString name="afii10073">
          -107 -13 154 -154 179 31 129 25 179 -154 154 hstemhm
          318 231 hintmask 10110100
          191 219 rmoveto
          -11 9 -11 12 vhcurveto
          65 hlineto
          34 7 -14 -16 -16 -10 -10 -30 -39 -2 4 9 -11 hvcurveto
          hintmask 01110100
          5 -7 -4 7 -17 hhcurveto
          -157 hlineto
          -9 -7 -8 -9 -59 54 -103 201 161 108 74 92 33 -18 48 -59 23 hvcurveto
          57 25 20 49 33 vvcurveto
          92 -108 74 -161 -201 -54 -103 -59 -9 7 -8 9 vhcurveto
          157 hlineto
          17 4 7 5 7 hvcurveto
          hintmask 10101100
          9 11 2 4 39 hhcurveto
          30 10 -10 -16 -16 -7 -8 -34 hvcurveto
          -65 hlineto
          -12 -9 -11 -11 0 0 -85 0 hvcurveto
          endchar
        </CharString>
        <CharString name="afii10074">
          -13 87 callgsubr
          233 107 233 vstem
          596 hmoveto
          -107 callsubr
          466 vlineto
          -107 callgsubr
          -179 hlineto
          -10 -8 -5 -8 -5 hvcurveto
          -111 -177 rlineto
          163 9 callsubr
          11 -99 callsubr
          179 hlineto
          9 9 4 7 5 hvcurveto
          112 179 rlineto
          -163 vlineto
          -15 12 -99 callsubr
          endchar
        </CharString>
        <CharString name="afii10075">
          -13 21 89 callsubr
          50 233 -119 132 94 233 hintmask 11001010
          596 hmoveto
          -107 callsubr
          466 vlineto
          -107 callgsubr
          -179 hlineto
          -10 -8 -5 -8 -5 hvcurveto
          -111 -177 rlineto
          163 9 callsubr
          11 -99 callsubr
          179 hlineto
          9 9 4 7 5 hvcurveto
          112 179 rlineto
          -163 vlineto
          -15 12 -99 callsubr
          -40 714 -80 callsubr
          hvcurveto
          hintmask 00100100
          -51 callsubr
          hintmask 00010100
          -38 callsubr
          hvcurveto
          endchar
        </CharString>
        <CharString name="afii10076">
          -30 87 callgsubr
          229 vstem
          279 493 rmoveto
          15 -12 12 -15 vhcurveto
          -175 hlineto
          -15 -12 -12 -15 hvcurveto
          -466 -62 callsubr
          -152 229 127 215 -13 callgsubr
          -192 hlineto
          -18 -8 -12 -5 -3 hvcurveto
          -98 -174 rlineto
          endchar
        </CharString>
        <CharString name="afii10077">
          -9 -10 185 -154 -29 callgsubr
          hstemhm
          117 232 45 233 hintmask 10111000
          94 -10 rmoveto
          145 110 69 160 hvcurveto
          126 45 -318 vlineto
          hintmask 01111000
          -15 12 -99 callsubr
          179 6 callgsubr
          -456 hlineto
          -106 callsubr
          hvcurveto
          -268 vlineto
          hintmask 10111000
          -31 -13 -19 -30 vhcurveto
          -7 -65 callsubr
          endchar
        </CharString>
        <CharString name="afii10078">
          77 87 callgsubr
          228 206 229 vstem
          273 500 rmoveto
          5 -3 -9 15 -20 hhcurveto
          -171 hlineto
          -11 -9 -9 -11 hvcurveto
          -480 vlineto
          -11 9 -9 11 vhcurveto
          188 hlineto
          11 9 9 11 hvcurveto
          164 vlineto
          49 -80 rlineto
          -8 5 8 -11 15 hhcurveto
          52 hlineto
          15 7 11 8 5 hvcurveto
          50 80 rlineto
          -164 vlineto
          -11 8 -9 12 vhcurveto
          188 hlineto
          12 9 9 11 hvcurveto
          480 vlineto
          11 -9 9 -12 vhcurveto
          -171 hlineto
          -20 -9 -15 -5 -3 hvcurveto
          -108 -178 rlineto
          endchar
        </CharString>
        <CharString name="afii10079">
          -13 21 -21 175 175 170 -20 hstem
          50 233 107 233 vstem
          596 hmoveto
          -107 callsubr
          466 vlineto
          -107 callgsubr
          -179 hlineto
          -106 callsubr
          hvcurveto
          -143 -107 143 -84 callgsubr
          179 hlineto
          -107 callsubr
          148 107 -148 vlineto
          -15 12 -99 callsubr
          endchar
        </CharString>
        <CharString name="afii10080">
          -26 callgsubr
          46 callgsubr
          -86 callsubr
          endchar
        </CharString>
        <CharString name="afii10081">
          -13 21 -21 345 175 hstem
          50 233 107 233 vstem
          596 hmoveto
          -107 callsubr
          466 vlineto
          -107 callgsubr
          -519 -97 callsubr
          179 hlineto
          -107 callsubr
          318 107 -318 vlineto
          -15 12 -99 callsubr
          endchar
        </CharString>
        <CharString name="afii10082">
          -17 83 callgsubr
          -10 -20 hstemhm
          80 callgsubr
          hintmask 11101100
          31 callsubr
          -49 -28 -39 -30 vhcurveto
          30 vlineto
          hintmask 11011100
          -107 callgsubr
          -170 hlineto
          -106 callsubr
          hvcurveto
          -657 vlineto
          -15 12 -99 callsubr
          185 hlineto
          -107 callsubr
          201 8 callsubr
          hintmask 11101100
          -2 callgsubr
        </CharString>
        <CharString name="afii10083">
          -32 callgsubr
          -29 callsubr
          hintmask 10011000
          -32 callsubr
          hintmask 01101000
          -90 callgsubr
          hintmask 10101000
          -19 callsubr
          endchar
        </CharString>
        <CharString name="afii10084">
          -117 21 -21 345 175 hstem
          170 229 vstem
          37 520 rmoveto
          -106 callsubr
          hvcurveto
          -121 vlineto
          -15 12 -99 callsubr
          133 -318 hlineto
          2 callgsubr
          133 vlineto
          -107 callsubr
          121 vlineto
          -107 callgsubr
          endchar
        </CharString>
        <CharString name="afii10085">
          -38 -191 175 536 -20 hstem
          -50 callsubr
          endchar
        </CharString>
        <CharString name="afii10086">
          234 83 callgsubr
          170 -20 55 callsubr
          91 204 -204 219 90 225 hintmask 11111101
          35 220 rmoveto
          -157 86 -73 116 55 27 18 29 32 vhcurveto
          -201 vlineto
          -15 12 -99 callsubr
          165 hlineto
          hintmask 11111011
          -107 callsubr
          201 vlineto
          -29 32 25 -18 56 hhcurveto
          116 86 73 157 hvcurveto
          79 vlineto
          167 -86 64 -116 vhcurveto
          hintmask 11111101
          -59 -39 -28 -39 -30 hvcurveto
          210 vlineto
          -107 callgsubr
          -150 hlineto
          -106 callsubr
          hvcurveto
          -194 vlineto
          30 -31 -34 21 -49 hhcurveto
          -116 -86 -64 -167 hvcurveto
          315 -80 rmoveto
          -32 -21 -18 -24 -37 -8 22 36 vhcurveto
          66 vlineto
          36 8 22 37 27 18 -22 -36 vhcurveto
          hintmask 11111011
          220 hmoveto
          36 18 22 27 37 8 -22 -36 vhcurveto
          -66 vlineto
          -36 -8 -22 -37 -24 -21 18 32 vhcurveto
          endchar
        </CharString>
        <CharString name="afii10087">
          -63 callsubr
        </CharString>
        <CharString name="afii10088">
          8 -81 -21 102 175 345 -20 hstemhm
          50 223 87 223 -92 183 hintmask 11110100
          491 hmoveto
          -75 vlineto
          -15 12 -99 callsubr
          129 hlineto
          -107 callsubr
          223 vlineto
          -107 callgsubr
          hintmask 11111000
          -64 318 hlineto
          -107 callgsubr
          -169 hlineto
          -106 callsubr
          hvcurveto
          -318 -87 318 vlineto
          -107 callgsubr
          -169 -97 callsubr
          endchar
        </CharString>
        <CharString name="afii10089">
          -21 21 -21 120 199 201 -20 hstem
          40 240 86 249 vstem
          366 319 rmoveto
          -36 hlineto
          -32 -18 11 34 hvcurveto
          129 vlineto
          -107 callgsubr
          -186 hlineto
          -106 callsubr
          hvcurveto
          -136 vlineto
          -171 107 -66 183 vhcurveto
          36 -93 hlineto
          -15 12 -99 callsubr
          195 6 callgsubr
          -195 36 callsubr
        </CharString>
        <CharString name="afii10090">
          179 0 175 345 -20 hstem
          50 218 59 208 57 223 vstem
          77 520 rmoveto
          -106 callsubr
          hvcurveto
          -466 vlineto
          -15 12 -99 callsubr
          711 6 callgsubr
          -169 hlineto
          -106 callsubr
          hvcurveto
          -318 -57 318 vlineto
          -107 callgsubr
          -154 hlineto
          -106 callsubr
          hvcurveto
          -318 -59 318 vlineto
          -107 callgsubr
          endchar
        </CharString>
        <CharString name="afii10091">
          241 -81 -21 102 185 335 -20 hstemhm
          50 218 59 208 57 223 -91 183 hintmask 11111010
          724 hmoveto
          -75 vlineto
          -15 12 -99 callsubr
          129 hlineto
          -107 callsubr
          233 vlineto
          -107 callgsubr
          hintmask 11111100
          -65 308 hlineto
          -107 callgsubr
          -169 hlineto
          -106 callsubr
          hvcurveto
          -308 -57 308 vlineto
          -107 callgsubr
          -154 hlineto
          -106 callsubr
          hvcurveto
          -308 -59 308 vlineto
          -107 callgsubr
          -164 -97 callsubr
          endchar
        </CharString>
        <CharString name="afii10092">
          80 0 177 81 175 -88 175 hstemhm
          166 234 116 215 hintmask 11011000
          470 hmoveto
          186 75 105 106 126 -105 96 -156 hvcurveto
          -65 60 hlineto
          hintmask 10111000
          -107 callgsubr
          -321 -82 callsubr
          109 -318 hlineto
          -15 12 -99 callsubr
          hintmask 11011000
          207 -28 callgsubr
        </CharString>
        <CharString name="afii10093">
          258 54 callsubr
          45 233 vstem
          867 hmoveto
          -92 callgsubr
          -333 -22 callgsubr
          -186 hlineto
          -106 callsubr
          hvcurveto
          1 -466 rlineto
          -15 12 -99 callsubr
          207 -28 callgsubr
        </CharString>
        <CharString name="afii10094">
          -41 54 callsubr
          vstem
          355 -22 callgsubr
          -186 hlineto
          -106 callsubr
          hvcurveto
          1 -466 rlineto
          -15 12 -99 callsubr
          207 -28 callgsubr
        </CharString>
        <CharString name="afii10095">
          29 callgsubr
          hintmask 01010000
          308 359 rmoveto
          30 15 -13 -22 7 hvcurveto
          -59 hlineto
          -106 callsubr
          hvcurveto
          -71 vlineto
          -15 12 -99 callsubr
          60 hlineto
          -26 -6 -15 -12 -32 hhcurveto
          -24 -20 11 19 -8 hvcurveto
          12 -5 -9 8 -15 hhcurveto
          -175 hlineto
          hintmask 10101000
          -106 callsubr
          -43 62 -151 221 163 137 89 158 hvcurveto
          46 vlineto
          158 -139 89 -163 -211 -70 -141 -53 -15 12 -99 callsubr
          92 callsubr
          8 8 12 6 hvcurveto
          19 9 23 11 20 hhcurveto
          endchar
        </CharString>
        <CharString name="afii10096">
          257 -10 160 -129 -21 370 160 -10 -20 89 callgsubr
          380 245 hintmask 01101100
          256 hmoveto
          -107 callsubr
          148 49 vlineto
          hintmask 10101100
          -123 23 109 -62 154 hhcurveto
          174 116 79 157 hvcurveto
          68 vlineto
          157 -127 79 -163 -143 -114 -60 -120 -27 vhcurveto
          -51 143 hlineto
          hintmask 01011100
          -89 callgsubr
          586 218 rmoveto
          hintmask 10101100
          -51 -12 -17 -33 -33 -12 14 54 vhcurveto
          84 vlineto
          51 12 17 33 33 12 -17 -51 vhcurveto
          endchar
        </CharString>
        <CharString name="afii10097">
          -16 21 -21 344 176 hstem
          59 220 101 240 vstem
          325 520 rmoveto
          -176 -90 -91 -117 -50 22 -45 36 -34 hvcurveto
          -83 -146 rlineto
          -2 -3 -2 -4 -6 vvcurveto
          -13 11 -11 13 vhcurveto
          205 hlineto
          20 9 14 3 2 hvcurveto
          46 91 rlineto
          44 -81 hlineto
          -15 12 -99 callsubr
          186 6 callgsubr
          -208 -237 rmoveto
          -60 hlineto
          -31 -15 10 19 19 10 13 36 hvcurveto
          60 hlineto
          endchar
        </CharString>
        <CharString name="afii10098">
          -136 21 -21 345 175 92 -20 hstem
          50 230 47 193 vstem
          -16 callgsubr
          213 vlineto
          -107 callsubr
          213 vlineto
          15 -12 12 17 callsubr
          -15 hvcurveto
          -65 vlineto
          endchar
        </CharString>
        <CharString name="afii10099">
          86 -201 180 42 -21 331 179 9 137 54 -20 hstem
          130 239 121 237 vstem
          369 276 rmoveto
          36 29 19 32 32 28 -19 -36 vhcurveto
          -198 12 callgsubr
          215 vlineto
          158 -100 70 24 callgsubr
          -107 callgsubr
          -185 hlineto
          -106 callsubr
          hvcurveto
          8 callgsubr
        </CharString>
        <CharString name="afii10100">
          -156 21 -21 345 175 49 167 hstemhm
          50 230 hintmask 11010000
          -16 callgsubr
          193 vlineto
          -107 callsubr
          121 vlineto
          -107 callgsubr
          hintmask 00100000
          -299 78 rmoveto
          -105 callgsubr
        </CharString>
        <CharString name="afii10101">
          29 callgsubr
          335 359 rmoveto
          20 23 -11 -19 9 hvcurveto
          hintmask 01010000
          -12 6 8 -8 15 hhcurveto
          20 callgsubr
          53 -70 141 -211 -163 -139 -89 -158 hvcurveto
          -46 vlineto
          -158 137 -89 163 221 62 151 43 -107 callgsubr
          -175 hlineto
          -15 -9 -8 -12 -5 hvcurveto
          hintmask 10101000
          -19 -8 -20 -11 -24 hhcurveto
          -32 -15 12 26 -6 hvcurveto
          60 hlineto
          -107 callsubr
          71 vlineto
          -107 callgsubr
          -59 hlineto
          22 7 15 13 30 hhcurveto
          endchar
        </CharString>
        <CharString name="afii10102">
          -82 -11 140 -140 171 198 -36 callsubr
          hstemhm
          40 232 hintmask 10101000
          0 callgsubr
          hintmask 01011000
          -77 callgsubr
          hintmask 10101000
          -78 callgsubr
          endchar
        </CharString>
        <CharString name="afii10103">
          -41 callgsubr
        </CharString>
        <CharString name="afii10104">
          -9 callsubr
          hstemhm
          -35 167 -82 233 -82 167 hintmask 11101000
          256 hmoveto
          -92 callgsubr
          -89 736 rmoveto
          hintmask 11110100
          -101 callgsubr
        </CharString>
        <CharString name="afii10105">
          -56 callgsubr
        </CharString>
        <CharString name="afii10106">
          308 0 177 -166 -21 268 175 87 -20 hstemhm
          117 227 55 229 116 215 hintmask 10111110
          698 -22 callgsubr
          -462 hlineto
          -106 callsubr
          hvcurveto
          -268 vlineto
          -31 -13 -19 -30 vhcurveto
          -7 hlineto
          -106 callsubr
          hvcurveto
          -131 vlineto
          hintmask 01111110
          -15 12 -99 callsubr
          27 hlineto
          145 105 69 160 hvcurveto
          126 55 -318 vlineto
          hintmask 10111110
          -15 12 -99 callsubr
          202 -28 callgsubr
        </CharString>
        <CharString name="afii10107">
          273 0 177 -2 175 -92 175 87 -20 hstemhm
          50 228 85 230 116 215 hintmask 10111110
          663 -22 callgsubr
          -181 hlineto
          -106 callsubr
          hvcurveto
          hintmask 01011110
          -143 -85 143 24 callsubr
          -466 vlineto
          hintmask 10111110
          -20 callsubr
          hintmask 01011110
          148 86 -148 vlineto
          hintmask 10111110
          -15 12 -99 callsubr
          202 -28 callgsubr
        </CharString>
        <CharString name="afii10108">
          89 21 -21 22 -21 330 179 9 137 -137 191 hstemhm
          130 239 111 250 hintmask 01110110
          369 276 rmoveto
          36 24 19 32 32 23 -19 -36 vhcurveto
          -248 vlineto
          -15 12 -99 callsubr
          196 hlineto
          -107 callsubr
          255 vlineto
          158 -103 69 24 callgsubr
          hintmask 01101110
          -107 callgsubr
          -185 hlineto
          -106 callsubr
          hvcurveto
          hintmask 10110110
          8 callgsubr
        </CharString>
        <CharString name="afii10109">
          -30 -9 callsubr
          hstemhm
          50 229 hintmask 11010000
          279 493 rmoveto
          15 -12 12 -15 vhcurveto
          -175 hlineto
          -15 -12 -12 -15 hvcurveto
          -466 -62 callsubr
          -152 229 127 215 -13 callgsubr
          -192 hlineto
          -18 -8 -12 -5 -3 hvcurveto
          -98 -174 rlineto
          hintmask 00100000
          -49 269 rmoveto
          -105 callgsubr
        </CharString>
        <CharString name="afii10110">
          -38 -191 175 536 61 callgsubr
          158 132 hintmask 11000000
          -50 callsubr
          212 730 -80 callsubr
          hvcurveto
          hintmask 00101000
          -51 callsubr
          hintmask 00011000
          -38 callsubr
          hvcurveto
          endchar
        </CharString>
        <CharString name="afii10145">
          63 -102 -21 144 -3 callgsubr
          -20 hstemhm
          65 250 -42 201 -37 247 hintmask 11110100
          315 220 rmoveto
          453 vlineto
          -107 callgsubr
          -196 hlineto
          -15 -12 -11 -16 hvcurveto
          -646 vlineto
          -15 12 -99 callsubr
          hintmask 11101000
          181 -96 hlineto
          -15 12 -99 callsubr
          147 hlineto
          -107 callsubr
          96 183 vlineto
          hintmask 11110100
          -107 callsubr
          646 vlineto
          -107 callgsubr
          -193 46 callsubr
          vlineto
          endchar
        </CharString>
        <CharString name="afii10193">
          -13 -81 -21 123 -29 callgsubr
          hstemhm
          64 213 -47 183 -49 213 hintmask 11110100
          550 hmoveto
          -107 callsubr
          466 vlineto
          -107 callgsubr
          -159 hlineto
          -106 callsubr
          hvcurveto
          -308 -87 308 vlineto
          -107 callgsubr
          -159 -97 callsubr
          hintmask 11101000
          139 -75 hlineto
          -15 12 -99 callsubr
          129 hlineto
          15 12 7 15 hvcurveto
          80 vlineto
          endchar
        </CharString>
        <CharString name="afii57718">
          147 261 -21 331 -20 hstemhm
          30 233 54 233 hintmask 11100000
          263 544 rmoveto
          -107 callgsubr
          -179 hlineto
          -106 callsubr
          hvcurveto
          -277 vlineto
          -15 12 -99 callsubr
          179 hlineto
          -107 callsubr
          287 277 rmoveto
          -107 callgsubr
          -179 hlineto
          -106 callsubr
          hvcurveto
          -277 vlineto
          -15 12 -99 callsubr
          179 hlineto
          hintmask 11010000
          -107 callsubr
          endchar
        </CharString>
        <CharString name="afii61352">
          594 0 133 -30 30 160 180 160 67 hstemhm
          65 235 100 235 50 245 0 70 0 245 hintmask 1011111010000000
          427 -69 callgsubr
          -243 vlineto
          -109 247 rlineto
          8 -3 -11 15 -27 hhcurveto
          -158 hlineto
          -102 callsubr
          181 hlineto
          -107 callsubr
          221 vlineto
          109 -225 rlineto
          -7 3 11 -16 -40 callgsubr
          77 -303 rmoveto
          157 117 79 163 163 117 -79 -157 vhcurveto
          -28 vlineto
          -157 -106 -79 -174 -174 -106 79 157 vhcurveto
          315 36 rmoveto
          51 -2 17 -33 -33 -2 -17 -51 vhcurveto
          -44 vlineto
          -54 2 -14 33 33 2 17 51 vhcurveto
          hintmask 0111111010000000
          218 -258 rmoveto
          15 12 -12 -15 hvcurveto
          -49 vlineto
          hintmask 1011111010000000
          -106 callsubr
          vhcurveto
          -506 hlineto
          -15 -12 12 15 hvcurveto
          49 vlineto
          hintmask 0111110100000000
          -105 callsubr
          vhcurveto
          endchar
        </CharString>
        <CharString name="agrave">
          -65 callgsubr
          31 579 -97 callgsubr
          hvcurveto
          hintmask 00001000
          -43 callsubr
        </CharString>
        <CharString name="alefhebrew">
          -72 21 -21 571 -20 hstem
          32 193 154 203 vstem
          356 23 rmoveto
          -5 3 12 -18 26 hhcurveto
          175 hlineto
          -45 callsubr
          2 0 4 -3 5 hvcurveto
          -111 171 rlineto
          80 53 22 92 78 vvcurveto
          115 5 callgsubr
          -111 vlineto
          -21 -1 -20 -8 -14 vhcurveto
          -109 170 rlineto
          7 -5 -11 18 -26 hhcurveto
          -167 -49 callsubr
          -5 1 -2 2 -4 hvcurveto
          93 -148 rlineto
          -74 -60 -20 -67 -127 vvcurveto
          -107 vlineto
          -15 12 -14 15 vhcurveto
          139 hlineto
          -96 callgsubr
          17 hvcurveto
          111 vlineto
          23 0 40 5 20 vhcurveto
          endchar
        </CharString>
        <CharString name="amacron">
          -41 -10 148 -117 -21 358 -36 callsubr
          49 147 -57 callsubr
          hintmask 00001000
          -132 588 rmoveto
          -13 -10 -10 -13 hvcurveto
          -101 vlineto
          -13 10 -10 13 vhcurveto
          327 hlineto
          13 10 10 13 hvcurveto
          101 -43 callgsubr
        </CharString>
        <CharString name="ampersand">
          138 -14 169 -134 -21 558 153 hstemhm
          40 218 -147 206 74 192 hintmask 10101100
          355 711 rmoveto
          -171 -73 -89 -97 hvcurveto
          hintmask 10110100
          -42 17 -47 42 -45 vhcurveto
          -86 -48 -44 -61 -81 vvcurveto
          -141 105 -74 172 vhcurveto
          hintmask 10101100
          68 58 11 37 57 hvcurveto
          hintmask 10110100
          27 -24 rlineto
          -4 5 6 -6 14 hhcurveto
          204 hlineto
          10 8 8 9 hvcurveto
          hintmask 10101100
          5 -2 5 -4 4 vhcurveto
          -119 124 rlineto
          41 44 78 106 43 vvcurveto
          hintmask 01110100
          10 -8 8 -10 vhcurveto
          -151 hlineto
          -11 -7 -5 -5 -2 hvcurveto
          -24 -56 -25 -26 0 vvcurveto
          -75 78 rlineto
          84 49 44 54 75 vvcurveto
          92 -76 89 -152 vhcurveto
          -38 -556 rmoveto
          -28 -31 23 32 20 14 20 17 8 hvcurveto
          hintmask 10110100
          88 -91 rlineto
          -9 -15 -19 -3 -26 hhcurveto
          37 403 rmoveto
          22 15 -15 -21 -21 -18 -15 -29 -13 hvcurveto
          -17 16 -10 18 14 vvcurveto
          22 18 15 19 vhcurveto
          endchar
        </CharString>
        <CharString name="aogonek">
          -41 -192 112 70 148 -117 -21 358 -36 callsubr
          12 callsubr
          -203 64 callsubr
          hintmask 1011010100000000
          573 -80 rmoveto
          -10 hlineto
          7 callgsubr
          hintmask 1101011000000000
          -107 callsubr
          287 vlineto
          137 -87 79 -181 -46 callsubr
          77 callgsubr
          hintmask 1100111000000000
          -71 callgsubr
          -23 -86 -53 -97 vvcurveto
          -90 79 -69 115 62 51 25 40 29 vhcurveto
          -28 vlineto
          hintmask 1011010010000000
          -15 12 -99 callsubr
          3 hlineto
          -3 -12 -1 -14 -14 -22 callsubr
          hintmask 1101011000000000
          -275 218 rmoveto
          -25 -13 13 15 14 9 15 35 8 hvcurveto
          59 13 rlineto
          -54 -26 -24 -39 vhcurveto
          endchar
        </CharString>
        <CharString name="approxequal">
          -136 109 190 -148 190 18 86 callgsubr
          hintmask 10010000
          160 591 rmoveto
          -12 callsubr
          hintmask 10100000
          -24 callsubr
          hintmask 01001000
          -93 -39 42 -99 hhcurveto
          -250 vmoveto
          -12 callsubr
          hintmask 10100000
          -24 callsubr
          hintmask 01100000
          -93 -39 42 -99 hhcurveto
          endchar
        </CharString>
        <CharString name="aring">
          -41 -10 148 -117 -21 358 -36 callsubr
          30 187 -63 63 55 callsubr
          -53 82 56 83 -68 240 hintmask 1010001001000000
          -68 callgsubr
          hintmask 0110001001000000
          -93 callsubr
          hintmask 1001001001000000
          -98 callsubr
          hintmask 0000100110000000
          19 422 -37 callsubr
          hintmask 0000010110000000
          4 callsubr
        </CharString>
        <CharString name="asciicircum">
          -148 590 -21 167 -20 hstem
          204 736 -104 callsubr
          -33 callgsubr
        </CharString>
        <CharString name="asciitilde">
          -136 175 86 callgsubr
          hintmask 01000000
          160 407 rmoveto
          -12 callsubr
          hintmask 10000000
          -24 callsubr
          hintmask 00100000
          -93 -39 42 -99 hhcurveto
          endchar
        </CharString>
        <CharString name="asterisk">
          -233 383 -21 163 146 72 -20 hstem
          156 367 rmoveto
          -4 5 5 -1 4 hhcurveto
          8 8 5 8 4 hvcurveto
          37 81 37 -81 rlineto
          -7 3 8 -6 9 hhcurveto
          4 5 1 4 5 hvcurveto
          88 63 rlineto
          7 5 1 7 5 vvcurveto
          4 -1 7 -7 6 vhcurveto
          -64 58 81 6 rlineto
          11 1 9 9 12 vvcurveto
          3 0 -1 -1 5 vhcurveto
          -26 98 rlineto
          8 -2 -8 8 -11 hhcurveto
          -4 -3 -1 -2 -4 hvcurveto
          -76 -37 20 83 rlineto
          1 4 0 1 2 66 callgsubr
          -120 hlineto
          -12 -10 -11 -11 -1 0 -1 1 -4 hvcurveto
          20 -84 -76 37 rlineto
          2 -4 -3 1 -4 hhcurveto
          -12 -7 -8 -8 -2 hvcurveto
          -27 -98 rlineto
          -1 -5 0 0 -2 vvcurveto
          -12 9 -9 12 -1 vhcurveto
          81 -6 -65 -59 rlineto
          -4 -3 -3 -6 -7 vvcurveto
          -9 4 -5 3 -2 vhcurveto
          endchar
        </CharString>
        <CharString name="at">
          194 -69 109 -109 169 35 104 -104 121 171 117 94 109 hstemhm
          50 115 60 143 109 151 87 115 hintmask 0110111111000000
          225 339 rmoveto
          -132 61 -72 119 69 24 22 27 21 vhcurveto
          -25 24 33 -14 86 hhcurveto
          101 67 52 101 hvcurveto
          116 vlineto
          220 -70 113 -294 -294 -122 -114 -216 vhcurveto
          -142 vlineto
          -219 123 -125 295 197 101 60 74 58 vhcurveto
          3 4 2 4 6 vvcurveto
          12 -9 9 -12 vhcurveto
          -110 hlineto
          -12 -7 -8 -4 -5 hvcurveto
          hintmask 1010111111000000
          -23 -29 -30 -25 -149 hhcurveto
          -205 -96 60 178 hvcurveto
          139 vlineto
          159 96 62 205 205 44 -62 -160 vhcurveto
          -119 vlineto
          -29 -6 -29 -39 -39 -3 29 29 vhcurveto
          212 vlineto
          -107 callgsubr
          -82 hlineto
          -106 callsubr
          hvcurveto
          -4 vlineto
          14 -8 -23 25 -56 hhcurveto
          -119 -61 -73 -132 hvcurveto
          143 hmoveto
          55 20 33 37 37 15 -32 -55 vhcurveto
          hintmask 1001111111000000
          -55 -14 -29 -38 -38 -19 28 55 vhcurveto
          endchar
        </CharString>
        <CharString name="atilde">
          -41 -10 148 -117 -21 358 -36 callsubr
          38 17 callgsubr
          35 225 100 240 hintmask 1010000110000000
          -68 callgsubr
          hintmask 0110000110000000
          -93 callsubr
          hintmask 1001000110000000
          -98 callsubr
          hintmask 0000010000000000
          106 430 rmoveto
          99 32 90 56 -69 callsubr
          -5 -16 -29 hhcurveto
          hintmask 0000001000000000
          -32 -25 37 -61 hhcurveto
          -100 -31 -73 callgsubr
          4 15 30 hhcurveto
          hintmask 0000100000000000
          28 callsubr
        </CharString>
        <CharString name="ayinhebrew">
          -16 0 175 396 -20 hstem
          402 223 vstem
          329 hmoveto
          190 106 59 194 hvcurveto
          291 vlineto
          -107 callgsubr
          -169 hlineto
          -15 -12 -11 -15 hvcurveto
          -295 vlineto
          -28 -8 -20 -16 -13 vhcurveto
          -118 357 rlineto
          6 -2 -8 19 -27 hhcurveto
          -163 hlineto
          -13 -13 -9 -13 -2 1 -4 1 -3 hvcurveto
          125 -365 rlineto
          -114 -82 callsubr
          endchar
        </CharString>
        <CharString name="b">
          -17 0 169 -158 -21 361 179 180 -20 hstemhm
          80 callgsubr
          hintmask 10111100
          634 300 rmoveto
          157 -96 73 -116 -56 -45 -18 -29 -32 vhcurveto
          200 vlineto
          -107 callgsubr
          -185 hlineto
          -106 callsubr
          hvcurveto
          -656 vlineto
          -15 12 -12 15 77 callgsubr
          -107 callsubr
          30 vlineto
          -39 30 49 -28 69 hhcurveto
          116 96 64 167 hvcurveto
          -345 80 rmoveto
          hintmask 01111100
          32 2 14 18 34 hhcurveto
          37 13 -22 -36 hvcurveto
          -66 vlineto
          -36 -13 -22 -37 -37 -13 22 36 vhcurveto
          endchar
        </CharString>
        <CharString name="backslash">
          -89 -63 -21 870 -20 hstem
          230 756 rmoveto
          14 -6 -13 16 -25 hhcurveto
          -134 -49 callsubr
          -2 0 -2 2 -5 hvcurveto
          338 -809 rlineto
          -13 5 12 -17 27 hhcurveto
          131 hlineto
          -45 callsubr
          2 0 2 -2 5 hvcurveto
          endchar
        </CharString>
        <CharString name="bar">
          -378 -187 -21 1104 -20 hstem
          60 188 vstem
          87 896 rmoveto
          -106 callsubr
          hvcurveto
          -1050 vlineto
          -15 12 -99 callsubr
          134 hlineto
          -107 callsubr
          1050 vlineto
          -107 callgsubr
          endchar
        </CharString>
        <CharString name="betdageshhebrew">
          -91 0 175 70 66 callsubr
          120 79 83 233 hintmask 01010000
          199 -101 callsubr
          hintmask 10101000
          -132 299 -36 callgsubr
        </CharString>
        <CharString name="bethebrew">
          -101 0 175 221 175 hstem
          272 233 vstem
          57 571 -36 callgsubr
        </CharString>
        <CharString name="braceleft">
          -179 -137 -21 934 -20 hstem
          150 180 vstem
          50 283 rmoveto
          -21 9 -12 20 -9 vhcurveto
          17 -7 rlineto
          39 -16 15 -44 -43 vvcurveto
          -203 148 -86 157 50 callgsubr
          29 81 vvcurveto
          0 vlineto
          80 -36 74 -37 13 vhcurveto
          37 13 36 66 88 vvcurveto
          0 vlineto
          81 55 29 55 callgsubr
          -157 -148 -86 -203 -43 -15 -44 -39 -16 vhcurveto
          -17 -7 rlineto
          -20 -9 -9 -12 -21 vvcurveto
          endchar
        </CharString>
        <CharString name="braceright">
          -179 -137 -21 934 -20 hstem
          177 180 vstem
          457 335 rmoveto
          21 -9 12 -20 9 vhcurveto
          -17 7 rlineto
          -39 16 -15 44 43 vvcurveto
          203 -148 86 -157 51 callgsubr
          -29 -81 vvcurveto
          0 vlineto
          -88 36 -66 37 -13 vhcurveto
          -37 -13 -36 -74 -80 vvcurveto
          0 vlineto
          -81 -55 -29 54 callgsubr
          157 148 86 203 43 15 44 39 16 vhcurveto
          17 7 rlineto
          20 9 9 12 21 vvcurveto
          endchar
        </CharString>
        <CharString name="bracketleft">
          82 callgsubr
          60 181 vstem
          87 776 rmoveto
          -106 callsubr
          hvcurveto
          -881 vlineto
          -15 12 -99 callsubr
          347 hlineto
          -107 callsubr
          109 vlineto
          -107 callgsubr
          -193 609 193 hlineto
          -107 callsubr
          109 vlineto
          -107 callgsubr
          endchar
        </CharString>
        <CharString name="bracketright">
          82 callgsubr
          250 181 vstem
          57 776 5 callsubr
          193 -609 -193 hlineto
          -106 callsubr
          hvcurveto
          -109 vlineto
          -15 12 -99 callsubr
          347 hlineto
          -107 callsubr
          881 vlineto
          -107 callgsubr
          endchar
        </CharString>
        <CharString name="breve">
          -241 568 76 callsubr
          50 132 hintmask 10100000
          263 714 -80 callsubr
          hvcurveto
          hintmask 01100000
          -51 callsubr
          -12 -7 -9 -10 hvcurveto
          endchar
        </CharString>
        <CharString name="brokenbar">
          -378 21 -21 829 -20 hstem
          60 188 vstem
          87 354 rmoveto
          -106 callsubr
          hvcurveto
          -300 vlineto
          -15 12 -99 callsubr
          134 hlineto
          -107 callsubr
          300 vlineto
          -107 callgsubr
          -134 475 rmoveto
          -106 callsubr
          hvcurveto
          -300 vlineto
          -15 12 -99 callsubr
          134 hlineto
          -107 callsubr
          300 vlineto
          -107 callgsubr
          endchar
        </CharString>
        <CharString name="bullet">
          -346 315 -21 280 -20 hstem
          30 28 callgsubr
        </CharString>
        <CharString name="c">
          -32 callgsubr
          -29 callsubr
          hintmask 10011000
          -32 callsubr
          hintmask 01101000
          -90 callgsubr
          hintmask 10101000
          -19 callsubr
          endchar
        </CharString>
        <CharString name="cacute">
          -32 callgsubr
          39 167 -29 callsubr
          hintmask 10010100
          -32 callsubr
          hintmask 01100100
          -90 callgsubr
          hintmask 10100100
          -19 callsubr
          hintmask 00001000
          -64 373 rmoveto
          -105 callgsubr
        </CharString>
        <CharString name="caron">
          -138 591 -15 callgsubr
          hstem
          339 570 -106 callgsubr
        </CharString>
        <CharString name="ccaron">
          -32 callgsubr
          48 callsubr
          35 245 hintmask 10010010
          -32 callsubr
          hintmask 01100010
          -90 callgsubr
          hintmask 10100010
          -19 callsubr
          hintmask 00001100
          105 345 -106 callgsubr
        </CharString>
        <CharString name="ccedilla">
          -48 41 callgsubr
          0 24 170 148 -98 98 50 171 -29 callsubr
          -76 242 hintmask 1010101100000000
          226 -93 rmoveto
          -1 -8 0 -1 -3 vvcurveto
          -55 callsubr
          hintmask 0101011010000000
          14 callsubr
          30 rlineto
          213 4 70 146 43 vvcurveto
          -107 callgsubr
          49 callsubr
          -9 -8 -12 -5 hvcurveto
          hintmask 1001101100000000
          -19 callsubr
          70 vlineto
          40 9 24 31 20 8 -11 -19 9 vhcurveto
          -34 callsubr
          53 -82 141 -211 -163 -117 -89 -158 hvcurveto
          -46 vlineto
          -134 84 -84 124 -22 vhcurveto
          endchar
        </CharString>
        <CharString name="ccircumflex">
          -32 callgsubr
          60 -21 167 -20 -29 callsubr
          hintmask 10010010
          -32 callsubr
          hintmask 01100010
          -90 callgsubr
          hintmask 10100010
          -19 callsubr
          -25 511 -104 callsubr
          hintmask 00001100
          -33 callgsubr
        </CharString>
        <CharString name="cdotaccent">
          -32 callgsubr
          29 177 -29 callsubr
          -50 177 hintmask 10010100
          -32 callsubr
          hintmask 01100100
          -90 callgsubr
          hintmask 10100100
          -19 callsubr
          hintmask 00001010
          -27 511 rmoveto
          72 callsubr
          131 hlineto
          13 10 10 13 hvcurveto
          131 -43 callgsubr
        </CharString>
        <CharString name="cedilla">
          -344 41 callgsubr
          -74 177 hstemhm
          50 242 hintmask 10101000
          72 -93 rmoveto
          -1 -8 0 -1 -3 vvcurveto
          -55 callsubr
          hintmask 01101000
          -44 callsubr
          18 77 rlineto
          1 4 2 4 3 vvcurveto
          hintmask 10011000
          58 callsubr
        </CharString>
        <CharString name="cent">
          -48 -79 -21 710 -20 -29 callsubr
          -66 203 hintmask 11010000
          390 -100 rmoveto
          -107 callsubr
          75 vlineto
          141 37 50 109 36 vvcurveto
          -107 callgsubr
          49 callsubr
          -9 -8 -12 -5 hvcurveto
          -19 -8 -5 -11 -24 hhcurveto
          hintmask 11100000
          -31 -9 21 43 hvcurveto
          70 vlineto
          40 9 24 31 20 8 -11 -19 9 vhcurveto
          -34 callsubr
          hvcurveto
          hintmask 11010000
          43 -55 103 -136 35 vhcurveto
          66 vlineto
          15 -12 12 0 callsubr
          -66 vlineto
          hintmask 11100000
          -108 -30 -71 -81 -123 vvcurveto
          -46 vlineto
          hintmask 11010000
          -123 71 -81 108 -30 vhcurveto
          -76 vlineto
          -15 12 -99 callsubr
          endchar
        </CharString>
        <CharString name="circumflex">
          -148 590 -21 167 -20 hstem
          204 736 -104 callsubr
          -33 callgsubr
        </CharString>
        <CharString name="colon">
          -378 0 218 132 218 hstem
          40 228 vstem
          67 218 rmoveto
          -106 callsubr
          hvcurveto
          -164 -9 callgsubr
          164 vlineto
          -107 callgsubr
          -174 350 rmoveto
          -106 callsubr
          hvcurveto
          -164 -9 callgsubr
          164 vlineto
          -107 callgsubr
          endchar
        </CharString>
        <CharString name="comma">
          -359 -53 -21 302 -20 hstem
          40 -50 -100 callgsubr
          endchar
        </CharString>
        <CharString name="commaaccent">
          -348 -240 190 hstem
          283 -81 -98 callgsubr
        </CharString>
        <CharString name="commaaccent.cap">
          -348 93 callgsubr
          hstem
          293 -81 -94 callsubr
        </CharString>
        <CharString name="copyright">
          94 -10 73 -73 167 106 178 -134 88 151 164 -73 73 hstemhm
          30 80 -80 183 357 180 -80 80 hintmask 1010011001000000
          30 350 -35 callsubr
          241 -45 rmoveto
          -32 17 -10 22 19 13 8 20 7 vhcurveto
          hintmask 0101100110000000
          13 3 5 3 12 hhcurveto
          110 hlineto
          5 6 -5 -7 -98 -89 -40 -90 -103 -75 44 104 hvcurveto
          92 vlineto
          102 79 47 99 90 89 -39 -99 -5 -6 -8 -5 vhcurveto
          -110 hlineto
          -12 -5 5 11 -3 hvcurveto
          hintmask 1010101010000000
          24 -9 -11 6 -19 hhcurveto
          -22 -17 -11 -33 hvcurveto
          endchar
        </CharString>
        <CharString name="currency">
          -16 83 153 195 153 hstem
          85 153 194 153 vstem
          530 610 rmoveto
          -9 9 -16 0 -10 -9 -51 -51 rcurveline
          16 -33 -37 9 -39 hhcurveto
          -40 -37 -9 -16 -33 hvcurveto
          -49 49 -10 11 -16 0 -10 -11 rlinecurve
          -82 -81 -9 -9 0 -16 9 -10 rlinecurve
          51 -51 rlineto
          -16 -33 -8 -37 -38 vvcurveto
          -39 9 -37 15 -33 vhcurveto
          -51 -51 -10 -9 0 -15 10 -10 rlinecurve
          82 -83 11 -11 15 1 10 10 rlinecurve
          51 51 rlineto
          -16 32 37 -8 39 hhcurveto
          39 36 8 16 33 hvcurveto
          52 -52 9 -10 15 0 10 10 rlinecurve
          83 82 11 11 -1 15 -10 10 rlinecurve
          -52 51 rlineto
          16 33 9 37 39 vvcurveto
          39 -9 36 -16 33 vhcurveto
          51 51 11 10 0 16 -11 10 rlinecurve
          -373 -195 rmoveto
          54 42 44 55 53 44 -44 -54 -54 -44 -43 -53 -55 -42 43 54 vhcurveto
          endchar
        </CharString>
        <CharString name="d">
          83 callsubr
          180 45 callgsubr
          hintmask 10111100
          9 callgsubr
          hintmask 01111100
          -8 callsubr
          hintmask 10111100
          3 callsubr
          endchar
        </CharString>
        <CharString name="dagger">
          -139 21 -21 338 186 176 -20 hstem
          179 188 vstem
          67 524 rmoveto
          -106 callsubr
          hvcurveto
          -132 vlineto
          -15 12 -99 callsubr
          112 -311 hlineto
          -15 12 -99 callsubr
          134 hlineto
          -107 callsubr
          311 113 vlineto
          -107 callsubr
          132 vlineto
          -107 callgsubr
          -113 149 hlineto
          -107 callgsubr
          -134 hlineto
          -106 callsubr
          hvcurveto
          -149 vlineto
          endchar
        </CharString>
        <CharString name="daggerdbl">
          -139 21 -21 126 186 86 186 116 -20 hstem
          179 188 vstem
          67 312 rmoveto
          -106 callsubr
          hvcurveto
          -132 vlineto
          -15 12 -99 callsubr
          112 -99 hlineto
          -15 12 -99 callsubr
          134 hlineto
          -107 callsubr
          99 113 vlineto
          -107 callsubr
          132 vlineto
          -107 callgsubr
          -113 86 45 callsubr
          132 vlineto
          -107 callgsubr
          -113 89 hlineto
          -107 callgsubr
          -134 hlineto
          -106 callsubr
          hvcurveto
          -89 -112 vlineto
          -106 callsubr
          hvcurveto
          -132 vlineto
          -15 12 -99 callsubr
          112 -86 hlineto
          endchar
        </CharString>
        <CharString name="daletdageshhebrew">
          -134 21 -21 245 66 callsubr
          70 79 62 231 hintmask 01010000
          149 -101 callsubr
          hintmask 10101000
          346 124 -15 callsubr
        </CharString>
        <CharString name="dalethebrew">
          -134 62 callsubr
          211 231 vstem
          495 396 -15 callsubr
        </CharString>
        <CharString name="dcaron">
          243 90 callgsubr
          -10 190 0 45 callgsubr
          hintmask 10101110
          9 callgsubr
          hintmask 01101110
          -8 callsubr
          hintmask 10101110
          3 callsubr
          hintmask 00010000
          544 378 -98 callgsubr
        </CharString>
        <CharString name="dcroat">
          83 callsubr
          8 105 67 45 callgsubr
          hintmask 10111110
          9 callgsubr
          hintmask 01111110
          -15 12 -12 15 77 callgsubr
          -107 callsubr
          511 30 vlineto
          -107 callsubr
          51 vlineto
          -107 callgsubr
          -30 40 hlineto
          -107 callgsubr
          -185 hlineto
          -106 callsubr
          hvcurveto
          -40 -30 71 callsubr
          30 -55 hlineto
          29 -32 -45 18 -56 hhcurveto
          -116 -96 -73 -157 hvcurveto
          345 -73 rmoveto
          hintmask 10111110
          3 callsubr
          endchar
        </CharString>
        <CharString name="degree">
          -216 340 107 155 108 hstem
          30 150 110 150 vstem
          236 340 rmoveto
          128 76 82 102 102 -76 84 -128 -128 -78 -83 -103 -103 78 -81 128 hvcurveto
          107 vmoveto
          -38 -18 30 47 47 20 31 36 36 18 -30 -48 -48 -16 -29 -38 hvcurveto
          endchar
        </CharString>
        <CharString name="dieresis">
          -183 569 167 hstem
          50 167 69 167 vstem
          73 736 rmoveto
          -101 callgsubr
        </CharString>
        <CharString name="divide">
          -79 38 168 43 176 43 168 hstem
          213 178 cntrmask 11100000
          67 425 rmoveto
          -106 callsubr
          hvcurveto
          -122 vlineto
          -15 12 -99 callsubr
          473 hlineto
          -107 callsubr
          122 vlineto
          -107 callgsubr
          -300 211 rmoveto
          -106 callsubr
          hvcurveto
          -114 vlineto
          -15 12 -99 callsubr
          124 hlineto
          -107 callsubr
          114 vlineto
          -107 callgsubr
          -124 -430 rmoveto
          -106 callsubr
          hvcurveto
          -114 vlineto
          -15 12 -99 callsubr
          124 hlineto
          -107 callsubr
          114 vlineto
          -107 callgsubr
          endchar
        </CharString>
        <CharString name="dollar">
          84 -79 -21 900 -20 hstem
          296 175 vstem
          471 773 rmoveto
          -107 callgsubr
          -121 hlineto
          -106 callsubr
          hvcurveto
          -70 vlineto
          -136 -24 -87 -85 -114 vvcurveto
          -133 100 -66 158 -21 vhcurveto
          99 -13 30 -10 -24 vvcurveto
          -18 -30 -10 -45 -33 -22 8 15 -19 vhcurveto
          11 -14 -8 6 -21 hhcurveto
          -190 -49 callsubr
          -95 79 -89 161 -23 hvcurveto
          -69 vlineto
          -15 12 -99 callsubr
          121 hlineto
          -107 callsubr
          70 vlineto
          144 23 102 83 123 vvcurveto
          130 -76 63 -200 25 vhcurveto
          -90 11 -21 13 19 vvcurveto
          17 14 11 34 28 18 -12 -6 7 vhcurveto
          -11 12 9 -5 19 hhcurveto
          200 hlineto
          11 10 10 12 72 -79 96 -142 30 hvcurveto
          endchar
        </CharString>
        <CharString name="dotaccent">
          -409 559 177 hstem
          50 177 vstem
          73 736 rmoveto
          72 callsubr
          131 hlineto
          13 10 10 13 hvcurveto
          131 -43 callgsubr
        </CharString>
        <CharString name="dotlessi">
          87 callgsubr
          233 vstem
          256 hmoveto
          -92 callgsubr
          endchar
        </CharString>
        <CharString name="dotlessj">
          -191 -190 210 317 183 hstem
          196 244 vstem
          185 -24 callgsubr
          endchar
        </CharString>
        <CharString name="e">
          -68 callsubr
          -29 callsubr
          hintmask 01111000
          -102 callgsubr
          hintmask 10111000
          -94 callgsubr
          endchar
        </CharString>
        <CharString name="eacute">
          29 callsubr
          hintmask 01110100
          -102 callgsubr
          hintmask 10110100
          -94 callgsubr
          hintmask 00001000
          -88 208 rmoveto
          -105 callgsubr
        </CharString>
        <CharString name="ebreve">
          -68 callsubr
          38 76 callsubr
          35 245 -133 132 hintmask 01110010
          -102 callgsubr
          hintmask 10110010
          -94 callgsubr
          40 324 -80 callsubr
          hvcurveto
          hintmask 00001001
          -51 callsubr
          hintmask 00000101
          -38 callsubr
          hvcurveto
          endchar
        </CharString>
        <CharString name="ecaron">
          -68 callsubr
          48 callsubr
          35 245 hintmask 01110010
          -102 callgsubr
          hintmask 10110010
          -94 callgsubr
          hintmask 00001100
          65 180 -106 callgsubr
        </CharString>
        <CharString name="ecircumflex">
          -68 callsubr
          60 -21 167 -20 -29 callsubr
          hintmask 01110010
          -102 callgsubr
          hintmask 10110010
          -94 callgsubr
          -64 346 -104 callsubr
          hintmask 00001100
          -33 callgsubr
        </CharString>
        <CharString name="edieresis">
          29 callsubr
          -162 167 69 167 hintmask 01110100
          -102 callgsubr
          hintmask 10110100
          -94 callgsubr
          hintmask 00001011
          -179 346 rmoveto
          -101 callgsubr
        </CharString>
        <CharString name="edotaccent">
          -68 callsubr
          29 177 -29 callsubr
          -48 177 hintmask 01110100
          -102 callgsubr
          hintmask 10110100
          -94 callgsubr
          hintmask 00001010
          -65 346 rmoveto
          72 callsubr
          131 hlineto
          13 10 10 13 hvcurveto
          131 -43 callgsubr
        </CharString>
        <CharString name="egrave">
          29 callsubr
          hintmask 01110100
          -102 callgsubr
          hintmask 10110100
          -94 callgsubr
          -3 327 -97 callgsubr
          hvcurveto
          hintmask 00001000
          -43 callsubr
        </CharString>
        <CharString name="eight">
          64 -10 168 118 157 108 169 hstemhm
          55 249 -224 224 140 221 hintmask 11101100
          374 710 rmoveto
          -219 -75 -104 -106 -55 21 -45 41 -30 hvcurveto
          hintmask 11110100
          -50 -29 -37 -57 -66 vvcurveto
          -114 85 -114 234 233 88 113 113 67 -35 60 -54 27 vhcurveto
          41 32 18 45 55 vvcurveto
          106 -74 102 -217 vhcurveto
          70 -493 rmoveto
          -37 -30 -22 -40 -40 -30 22 37 37 30 22 40 40 30 -22 -37 vhcurveto
          -6 270 rmoveto
          -30 -24 -24 -40 -40 -23 24 30 30 23 24 40 40 24 -24 -30 vhcurveto
          endchar
        </CharString>
        <CharString name="eightinferior">
          -256 -180 89 53 88 48 92 hstemhm
          55 -21 callsubr
          hintmask 11101100
          214 190 -13 callsubr
          hintmask 11110010
          -56 callsubr
          hintmask 11110100
          -88 callgsubr
          endchar
        </CharString>
        <CharString name="eightsuperior">
          -256 340 89 53 88 48 92 hstemhm
          55 -21 callsubr
          hintmask 11101100
          214 710 -13 callsubr
          hintmask 11110010
          -56 callsubr
          hintmask 11110100
          -88 callgsubr
          endchar
        </CharString>
        <CharString name="ellipsis">
          168 0 208 hstem
          40 208 75 208 75 208 cntrmask 01110000
          67 208 rmoveto
          16 callgsubr
          129 hmoveto
          16 callgsubr
          129 hmoveto
          16 callgsubr
          endchar
        </CharString>
        <CharString name="emacron">
          -68 callsubr
          49 147 -29 callsubr
          hintmask 01110100
          -102 callgsubr
          hintmask 10110100
          -94 callgsubr
          hintmask 00001000
          -164 336 rmoveto
          -13 -10 -10 -13 hvcurveto
          -101 vlineto
          -13 10 -10 13 vhcurveto
          327 hlineto
          13 10 10 13 hvcurveto
          101 -43 callgsubr
        </CharString>
        <CharString name="emdash">
          53 237 200 hstem
          67 437 rmoveto
          -106 callsubr
          hvcurveto
          -146 vlineto
          -15 12 -99 callsubr
          605 hlineto
          -107 callsubr
          146 vlineto
          -107 callgsubr
          endchar
        </CharString>
        <CharString name="endash">
          -137 237 200 hstem
          67 437 rmoveto
          -106 callsubr
          hvcurveto
          -146 vlineto
          -15 12 -99 callsubr
          415 hlineto
          -107 callsubr
          146 vlineto
          -107 callgsubr
          endchar
        </CharString>
        <CharString name="eng">
          3 -306 203 124 25 callsubr
          hintmask 11101100
          261 81 callsubr
          29 hlineto
          182 140 83 190 hvcurveto
          336 vlineto
          158 -93 69 -101 -71 -62 -31 -39 -33 vhcurveto
          33 vlineto
          hintmask 11011100
          -90 callsubr
          269 vlineto
          hintmask 11101100
          36 18 60 callsubr
          -318 vlineto
          -61 -24 -20 -43 vhcurveto
          -39 36 callsubr
        </CharString>
        <CharString name="eogonek">
          -46 -202 112 80 145 -145 177 34 125 64 140 -29 callsubr
          -135 64 callsubr
          hintmask 11011010
          321 -90 rmoveto
          -10 hlineto
          7 callgsubr
          3 hlineto
          183 2 85 102 51 vvcurveto
          hintmask 10111001
          13 -9 9 -13 vhcurveto
          -189 hlineto
          -16 -5 -2 -12 -12 hvcurveto
          hintmask 11011100
          15 callsubr
          -163 -122 -100 -146 vhcurveto
          -48 vlineto
          -100 48 -72 78 -39 vhcurveto
          hintmask 11011001
          -11 -22 -5 -25 -28 -22 callsubr
          -1 480 rmoveto
          25 15 -19 -41 hvcurveto
          -4 vlineto
          hintmask 11011100
          -80 4 hlineto
          41 14 19 26 vhcurveto
          endchar
        </CharString>
        <CharString name="equal">
          -127 133 170 80 170 hstem
          77 553 -10 callsubr
          405 -11 callgsubr
          -405 -250 -10 callsubr
          405 -11 callgsubr
          endchar
        </CharString>
        <CharString name="estimated">
          -9 -10 156 -156 189 44 155 82 150 hstemhm
          35 250 108 249 hintmask 01111100
          613 223 rmoveto
          16 13 15 18 hvcurveto
          56 vlineto
          176 -97 122 -206 -169 -135 -102 -175 vhcurveto
          -58 vlineto
          -188 124 -97 181 204 84 92 71 16 -10 10 -14 vhcurveto
          -188 hlineto
          -18 -5 -2 -14 -13 hvcurveto
          hintmask 10111100
          -14 -12 -17 -3 -13 hhcurveto
          -32 -21 25 38 hvcurveto
          14 vlineto
          54 237 rmoveto
          27 27 -10 -69 hvcurveto
          -3 -108 3 vlineto
          59 25 20 29 vhcurveto
          endchar
        </CharString>
        <CharString name="eth">
          -31 -10 160 160 160 229 -20 21 -20 -29 callsubr
          90 245 hintmask 11101100
          181 557 rmoveto
          -16 -6 -6 -9 -18 vvcurveto
          -28 -5 callgsubr
          118 46 12 -18 10 -18 8 -18 rlinecurve
          -14 hlineto
          -163 -127 -79 -157 hvcurveto
          -8 vlineto
          13 callgsubr
          174 116 79 157 vhcurveto
          62 vlineto
          137 -41 100 -65 77 vhcurveto
          39 15 40 callgsubr
          28 -6 callsubr
          -89 -35 rlineto
          -1 hlineto
          -11 9 -11 9 -11 8 rrcurveto
          hintmask 11011100
          7 -10 -16 6 -27 hhcurveto
          -188 -49 callsubr
          -5 4 -8 9 -6 hvcurveto
          32 -22 31 -24 27 -27 rrcurveto
          115 -368 27 callsubr
          endchar
        </CharString>
        <CharString name="exclam">
          -348 0 228 472 -20 hstem
          55 228 vstem
          82 228 rmoveto
          -106 callsubr
          hvcurveto
          -174 -9 callgsubr
          174 vlineto
          -107 callgsubr
          -174 472 rmoveto
          -106 callsubr
          hvcurveto
          -378 -9 callgsubr
          378 vlineto
          -107 callgsubr
          endchar
        </CharString>
        <CharString name="exclamdown">
          -348 -159 -21 472 228 hstem
          55 228 vstem
          256 292 rmoveto
          -107 callsubr
          174 24 callsubr
          -174 vlineto
          -15 12 -99 callsubr
          174 -472 rmoveto
          -107 callsubr
          378 24 callsubr
          -378 vlineto
          -15 12 -99 callsubr
          endchar
        </CharString>
        <CharString name="f">
          -175 21 -21 345 39 callgsubr
          340 532 rmoveto
          -52 callsubr
          -318 hlineto
          2 callgsubr
          113 vlineto
          -107 callsubr
          121 vlineto
          -107 callgsubr
          -113 hlineto
          endchar
        </CharString>
        <CharString name="finalkafdageshhebrew">
          -144 -103 -21 369 66 callsubr
          67 79 65 221 hintmask 01010000
          146 -101 callsubr
          hintmask 10101000
          339 124 -14 callgsubr
        </CharString>
        <CharString name="finalkafhebrew">
          -144 -103 -21 520 175 hstem
          211 221 vstem
          485 396 -14 callgsubr
        </CharString>
        <CharString name="finalmemhebrew">
          -31 0 175 221 175 hstem
          50 197 151 212 42 callsubr
          505 hlineto
          16 12 14 14 hvcurveto
          290 vlineto
          194 -105 59 -190 vhcurveto
          9 -175 rmoveto
          49 25 -25 -50 hvcurveto
          -146 -151 221 vlineto
          endchar
        </CharString>
        <CharString name="finalnunhebrew">
          -363 -103 -21 695 -20 hstem
          50 223 vstem
          273 544 rmoveto
          -107 callgsubr
          -169 hlineto
          -106 callsubr
          hvcurveto
          -641 vlineto
          -15 12 -99 callsubr
          -26 callsubr
          endchar
        </CharString>
        <CharString name="finalpehebrew">
          -81 -103 -21 520 175 hstem
          20 191 137 212 vstem
          533 -124 rmoveto
          -107 callsubr
          440 vlineto
          144 -85 84 -190 vhcurveto
          -238 hlineto
          -106 callsubr
          hvcurveto
          -166 vlineto
          -166 92 -68 131 vhcurveto
          8 hlineto
          -107 callsubr
          128 vlineto
          -107 callgsubr
          -7 hlineto
          -23 -10 14 33 hvcurveto
          23 73 vlineto
          49 15 -20 -30 hvcurveto
          -443 vlineto
          -15 12 -99 callsubr
          endchar
        </CharString>
        <CharString name="finaltsadihebrew">
          -85 -103 -21 695 -20 hstem
          363 203 vstem
          238 547 rmoveto
          12 -5 -9 12 -20 hhcurveto
          -172 hlineto
          -12 -11 -10 -11 -3 0 -2 2 -6 hvcurveto
          245 -639 rlineto
          -12 5 10 -12 20 hhcurveto
          169 hlineto
          12 10 9 12 3 -1 3 -2 6 hvcurveto
          -92 242 rlineto
          88 48 91 83 145 vvcurveto
          115 5 callgsubr
          -111 vlineto
          -50 -24 -27 -22 -17 vhcurveto
          endchar
        </CharString>
        <CharString name="five">
          65 -12 195 -195 246 48 186 -162 162 37 195 hstemhm
          hintmask 01101000
          315 218 rmoveto
          5 -4 -11 11 -21 hhcurveto
          -202 -49 callsubr
          -120 109 -104 212 212 108 117 133 133 -121 97 -123 -66 -31 -9 -25 -37 hvcurveto
          8 71 rlineto
          292 -58 callgsubr
          vlineto
          -107 callgsubr
          -447 hlineto
          -19 -17 -11 -23 -3 hvcurveto
          -40 -357 rlineto
          -1 -11 1 8 -2 vvcurveto
          -54 callgsubr
          vhcurveto
          199 hlineto
          hintmask 10011000
          17 5 24 42 hhcurveto
          39 22 -30 -31 -41 -29 -21 -32 -33 -11 12 23 -18 hvcurveto
          endchar
        </CharString>
        <CharString name="fiveeighths">
          149 33 callgsubr
          -20 102 -102 123 28 83 18 108 hstemhm
          197 133 125 -21 callsubr
          hintmask 1011001110110000
          614 360 -13 callsubr
          hintmask 1011001111001000
          -56 callsubr
          hintmask 1011001111010000
          -88 callgsubr
          -500 212 rmoveto
          hintmask 1010011111010000
          -73 callsubr
          hintmask 0110101111010000
          -18 -100 callsubr
          -15 -4 3 11 -8 vhcurveto
          -60 -425 63 callgsubr
          -95 callgsubr
        </CharString>
        <CharString name="fiveinferior">
          -256 -180 42 callgsubr
          -64 rmoveto
          -73 callsubr
          hintmask 10111000
          -18 -100 callsubr
          -15 -4 3 11 -8 vhcurveto
          endchar
        </CharString>
        <CharString name="fivesuperior">
          -256 340 42 callgsubr
          456 rmoveto
          -73 callsubr
          hintmask 10111000
          -18 -100 callsubr
          -15 -4 3 11 -8 vhcurveto
          endchar
        </CharString>
        <CharString name="florin">
          -175 -306 203 448 39 callgsubr
          -22 -279 rmoveto
          -15 12 -99 callsubr
          39 hlineto
          192 104 83 190 hvcurveto
          378 113 vlineto
          -107 callsubr
          121 vlineto
          -107 callgsubr
          -113 12 hlineto
          -52 callsubr
          -367 hlineto
          -61 -24 -20 -43 vhcurveto
          -39 36 callsubr
        </CharString>
        <CharString name="four">
          100 21 -21 112 203 385 -20 hstem
          383 233 vstem
          616 315 rmoveto
          358 vlineto
          -107 callgsubr
          -208 hlineto
          -16 -13 -7 -10 -8 hvcurveto
          -283 -370 rlineto
          -4 -5 -7 -9 -17 vvcurveto
          -143 vlineto
          -15 12 -99 callsubr
          299 -85 hlineto
          -15 12 -99 callsubr
          186 hlineto
          -107 callsubr
          85 88 vlineto
          -107 callsubr
          149 vlineto
          14 -11 13 -17 vhcurveto
          -425 -11 rmoveto
          105 144 rlineto
          -144 vlineto
          endchar
        </CharString>
        <CharString name="fourinferior">
          -246 -149 -21 46 111 193 -20 hstem
          201 127 vstem
          328 -13 -84 callsubr
          endchar
        </CharString>
        <CharString name="foursuperior">
          -221 371 -21 46 111 193 -20 hstem
          226 127 vstem
          353 507 -84 callsubr
          endchar
        </CharString>
        <CharString name="fraction">
          -670 -16 callsubr
          -242 31 63 callgsubr
          -95 callgsubr
        </CharString>
        <CharString name="g">
          -31 callgsubr
          hstemhm
          35 52 callsubr
          hintmask 10110110
          35 249 -54 callsubr
          hintmask 01110110
          -75 callgsubr
          hintmask 10101110
          -49 callgsubr
          hintmask 10110110
          -31 callsubr
          endchar
        </CharString>
        <CharString name="gbreve">
          -31 callgsubr
          58 76 callsubr
          35 245 -95 132 63 244 hintmask 1011000101000000
          35 249 -54 callsubr
          hintmask 0111000101000000
          -75 callgsubr
          hintmask 1010100101000000
          -49 callgsubr
          hintmask 1011000101000000
          -31 callsubr
          68 517 -80 callsubr
          hvcurveto
          hintmask 0000010010000000
          -51 callsubr
          hintmask 0000001010000000
          -38 callsubr
          hvcurveto
          endchar
        </CharString>
        <CharString name="gcircumflex">
          -31 callgsubr
          80 -21 167 -20 hstemhm
          35 52 callsubr
          hintmask 1011000110000000
          35 249 -54 callsubr
          hintmask 0111000110000000
          -75 callgsubr
          hintmask 1010100110000000
          -49 callgsubr
          hintmask 1011000110000000
          -31 callsubr
          -38 539 -104 callsubr
          hintmask 0000011000000000
          -33 callgsubr
        </CharString>
        <CharString name="gcommaaccent">
          -31 callgsubr
          62 150 hstemhm
          35 52 callsubr
          hintmask 00000100
          250 603 rmoveto
          -2 -3 -3 -7 -5 vvcurveto
          -10 6 -6 10 vhcurveto
          130 hlineto
          13 20 0 20 9 hvcurveto
          45 96 rlineto
          2 4 3 6 5 vvcurveto
          12 -7 7 -12 vhcurveto
          -107 hlineto
          -15 -8 -1 -18 -14 hvcurveto
          hintmask 10110011
          -285 -454 -54 callsubr
          hintmask 01110011
          -75 callgsubr
          hintmask 10101011
          -49 callgsubr
          hintmask 10110011
          -31 callsubr
          endchar
        </CharString>
        <CharString name="gdotaccent">
          -31 callgsubr
          49 177 -29 callsubr
          -21 177 -56 244 hintmask 1011001010000000
          35 249 -54 callsubr
          hintmask 0111001010000000
          -75 callgsubr
          hintmask 1010101010000000
          -49 callgsubr
          hintmask 1011001010000000
          -31 callsubr
          hintmask 0000010100000000
          -48 539 rmoveto
          72 callsubr
          131 hlineto
          13 10 10 13 hvcurveto
          131 -43 callgsubr
        </CharString>
        <CharString name="germandbls">
          4 0 168 118 152 103 169 hstem
          45 232 126 222 vstem
          277 27 rmoveto
          432 vlineto
          59 24 22 39 1 vhcurveto
          39 -1 24 -22 -29 vvcurveto
          -30 -24 -20 -39 -1 vhcurveto
          -25 -1 -8 -11 -15 vvcurveto
          -98 vlineto
          -15 12 -12 21 vhcurveto
          47 1 22 -24 -36 vvcurveto
          -37 -30 -23 -39 1 vhcurveto
          -21 1 -12 -13 -15 vvcurveto
          -114 vlineto
          -15 12 -12 21 vhcurveto
          43 -16 0 8 hhcurveto
          174 106 113 103 87 -35 45 -54 27 hvcurveto
          41 32 18 40 55 vvcurveto
          106 -79 101 -206 1 vhcurveto
          -206 -1 -89 -111 -146 vvcurveto
          -425 vlineto
          -15 12 -99 callsubr
          178 -27 callgsubr
        </CharString>
        <CharString name="gimeldageshhebrew">
          -68 21 -21 281 80 45 175 hstemhm
          40 233 -153 79 69 234 hintmask 01001000
          199 334 rmoveto
          -107 callgsubr
          -25 hlineto
          -106 callsubr
          hvcurveto
          -26 vlineto
          -15 12 -99 callsubr
          25 hlineto
          -107 callsubr
          hintmask 10100100
          303 -56 7 callsubr
          hintmask 10110000
          -12 callgsubr
        </CharString>
        <CharString name="gimelhebrew">
          -73 21 -21 406 175 hstemhm
          35 233 -5 234 hintmask 11010000
          497 252 7 callsubr
          hintmask 11100000
          -12 callgsubr
        </CharString>
        <CharString name="grave">
          -236 569 167 hstem
          293 -7 callgsubr
        </CharString>
        <CharString name="greater">
          -155 35 -21 672 -20 hstem
          511 371 rmoveto
          21 -11 9 -18 12 vhcurveto
          -400 270 rlineto
          3 -5 -4 0 -2 hhcurveto
          -12 -9 -9 -12 hvcurveto
          -162 vlineto
          -26 20 -11 12 -7 vhcurveto
          175 -109 -175 -110 rlineto
          -12 -7 -20 -10 -26 vvcurveto
          -162 vlineto
          -12 9 -9 12 2 4 0 3 5 vhcurveto
          400 270 rlineto
          18 12 11 9 21 vvcurveto
          endchar
        </CharString>
        <CharString name="greaterequal">
          -145 0 163 523 -20 hstem
          511 461 rmoveto
          21 -9 12 -20 9 vhcurveto
          -400 180 rlineto
          2 -5 -4 1 -2 hhcurveto
          -12 -9 -9 -12 hvcurveto
          -122 vlineto
          -26 19 -14 13 -4 vhcurveto
          175 -59 -175 -60 rlineto
          -13 -5 -19 -12 -26 vvcurveto
          -122 -5 callgsubr
          400 180 rlineto
          20 9 9 12 21 vvcurveto
          -434 -256 5 callsubr
          407 hlineto
          -107 callsubr
          109 vlineto
          -107 callgsubr
          endchar
        </CharString>
        <CharString name="guillemotleft">
          -59 73 -21 554 -20 hstem
          200 329 -67 callsubr
          221 69 -67 callsubr
          endchar
        </CharString>
        <CharString name="guillemotright">
          -59 73 -21 554 -20 hstem
          358 260 -67 callgsubr
          -359 -69 -67 callgsubr
          endchar
        </CharString>
        <CharString name="guilsinglleft">
          -349 73 -21 554 -20 hstem
          200 329 -67 callsubr
          endchar
        </CharString>
        <CharString name="guilsinglright">
          -349 73 -21 554 -20 hstem
          68 260 -67 callgsubr
          endchar
        </CharString>
        <CharString name="h">
          9 74 callgsubr
          180 -20 hstemhm
          50 249 101 250 hintmask 01111100
          299 296 rmoveto
          36 19 60 callsubr
          -268 vlineto
          -15 12 -99 callsubr
          196 hlineto
          -107 callsubr
          275 vlineto
          158 -98 69 -101 -62 -55 -24 -38 -35 vhcurveto
          215 vlineto
          -107 callgsubr
          13 callsubr
          hvcurveto
          -656 vlineto
          hintmask 10111100
          -15 12 -99 callsubr
          75 callgsubr
          endchar
        </CharString>
        <CharString name="hbar">
          9 74 callgsubr
          8 105 67 -20 hstemhm
          50 249 101 250 hintmask 01111110
          299 296 rmoveto
          36 19 60 callsubr
          -268 vlineto
          -15 12 -99 callsubr
          196 hlineto
          -107 callsubr
          275 vlineto
          158 -98 69 -101 -62 -55 -24 -38 -35 vhcurveto
          70 24 vlineto
          -107 callsubr
          51 vlineto
          -107 callgsubr
          -24 40 hlineto
          -107 callgsubr
          13 callsubr
          hvcurveto
          -40 -26 71 callsubr
          26 -511 hlineto
          hintmask 10111110
          -15 12 -99 callsubr
          75 callgsubr
          endchar
        </CharString>
        <CharString name="hcircumflex">
          14 74 callgsubr
          180 -20 70 -21 167 -20 hstemhm
          55 249 101 250 hintmask 01110011
          304 296 rmoveto
          36 19 60 callsubr
          -268 vlineto
          -15 12 -99 callsubr
          196 hlineto
          -107 callsubr
          275 vlineto
          158 -98 69 -101 -62 -55 -24 -38 -35 vhcurveto
          215 vlineto
          -107 callgsubr
          13 callsubr
          hvcurveto
          -656 vlineto
          hintmask 10110011
          -15 12 -99 callsubr
          75 callgsubr
          -193 879 -104 callsubr
          hintmask 00001100
          -33 callgsubr
        </CharString>
        <CharString name="hedageshhebrew">
          -11 21 -21 245 80 31 91 callsubr
          27 79 28 223 hintmask 01000100
          379 -101 callsubr
          hintmask 10101010
          -106 -245 -3 callsubr
          hintmask 10011010
          -15 12 -99 callsubr
          256 hlineto
          -59 callgsubr
          184 -106 69 -190 vhcurveto
          endchar
        </CharString>
        <CharString name="hehebrew">
          -11 21 -21 356 91 callsubr
          134 223 hintmask 11011000
          273 27 -3 callsubr
          hintmask 10111000
          -15 12 -99 callsubr
          256 hlineto
          -59 callgsubr
          184 -106 69 -190 vhcurveto
          endchar
        </CharString>
        <CharString name="hethebrew">
          -6 62 callsubr
          50 223 139 223 42 callsubr
          -26 callsubr
          369 65 vlineto
          -59 callgsubr
          194 -106 59 68 callsubr
        </CharString>
        <CharString name="hungarumlaut">
          -64 570 167 hstem
          55 601 -77 callsubr
        </CharString>
        <CharString name="hyphen">
          -2 callsubr
        </CharString>
        <CharString name="i">
          -41 callgsubr
        </CharString>
        <CharString name="iacute">
          -9 callsubr
          hstem
          50 233 vstem
          256 hmoveto
          -92 callgsubr
          598 vmoveto
          -105 callgsubr
        </CharString>
</ttFont>
